/* XPM */
static char * arrow_down_16x16_xpm[] = {
"16 16 50 1",
" 	c None",
".	c #7AB587",
"+	c #81B180",
"@	c #619365",
"#	c #56895B",
"$	c #4B7E51",
"%	c #44754C",
"&	c #356043",
"*	c #DEF0DA",
"=	c #AAD8A2",
"-	c #8ECA82",
";	c #80BF76",
">	c #62A45E",
",	c #396442",
"'	c #E6F2E6",
")	c #C6E3C3",
"!	c #98CE8D",
"~	c #85C37A",
"{	c #69AF64",
"]	c #3E6D46",
"^	c #E1F0E0",
"/	c #D2E7D1",
"(	c #A5D19C",
"_	c #87C57B",
":	c #70B66B",
"<	c #539158",
"[	c #447E56",
"}	c #3F7356",
"|	c #3A6656",
"1	c #FFFFFF",
"2	c #EEF7EB",
"3	c #DDF1D8",
"4	c #D7EAD6",
"5	c #B9DBB5",
"6	c #8CC680",
"7	c #7DBD79",
"8	c #74BE7A",
"9	c #53A362",
"0	c #3C6A52",
"a	c #DFF0DD",
"b	c #DCEDDB",
"c	c #C6E2C5",
"d	c #91C989",
"e	c #90C68D",
"f	c #3A634D",
"g	c #E5F2E4",
"h	c #D3E8D2",
"i	c #97CB90",
"j	c #DEEEDD",
"k	c #D5E7D7",
"                ",
"                ",
"                ",
"    .+@#$%&     ",
"    .*=-;>,     ",
"    .')!~{]     ",
" ....^/(_:<[}|  ",
"  .1234567890   ",
"   .1abcde9f    ",
"    .1ghi9f     ",
"     .1j9f      ",
"      .kf       ",
"       .        ",
"                ",
"                ",
"                "};
