/* XPM */
static char * arrow_left_16x16_xpm[] = {
"16 16 50 1",
" 	c None",
".	c #3A6656",
"+	c #3C6A52",
"@	c #3F7356",
"#	c #3A634D",
"$	c #53A362",
"%	c #447E56",
"&	c #74BE7A",
"*	c #539158",
"=	c #3E6D46",
"-	c #396442",
";	c #356043",
">	c #90C68D",
",	c #7DBD79",
"'	c #70B66B",
")	c #69AF64",
"!	c #62A45E",
"~	c #44754C",
"{	c #97CB90",
"]	c #91C989",
"^	c #8CC680",
"/	c #87C57B",
"(	c #85C37A",
"_	c #80BF76",
":	c #4B7E51",
"<	c #7AB587",
"[	c #D5E7D7",
"}	c #DEEEDD",
"|	c #D3E8D2",
"1	c #C6E2C5",
"2	c #B9DBB5",
"3	c #A5D19C",
"4	c #98CE8D",
"5	c #8ECA82",
"6	c #56895B",
"7	c #FFFFFF",
"8	c #E5F2E4",
"9	c #DCEDDB",
"0	c #D7EAD6",
"a	c #D2E7D1",
"b	c #C6E3C3",
"c	c #AAD8A2",
"d	c #619365",
"e	c #DFF0DD",
"f	c #DDF1D8",
"g	c #E1F0E0",
"h	c #E6F2E6",
"i	c #DEF0DA",
"j	c #81B180",
"k	c #EEF7EB",
"                ",
"                ",
"         .      ",
"        +@      ",
"       #$%      ",
"      #$&*=-;   ",
"     #$>,')!~   ",
"    #${]^/(_:   ",
"   <[}|123456   ",
"    <7890abcd   ",
"     <7efghij   ",
"      <7k<<<<   ",
"       <7<      ",
"        <<      ",
"         <      ",
"                "};
