/* XPM */
static char * arrow_right_16x16_xpm[] = {
"16 16 50 1",
" 	c None",
".	c #7AB587",
"+	c #FFFFFF",
"@	c #EEF7EB",
"#	c #81B180",
"$	c #DEF0DA",
"%	c #E6F2E6",
"&	c #E1F0E0",
"*	c #DDF1D8",
"=	c #DFF0DD",
"-	c #619365",
";	c #AAD8A2",
">	c #C6E3C3",
",	c #D2E7D1",
"'	c #D7EAD6",
")	c #DCEDDB",
"!	c #E5F2E4",
"~	c #56895B",
"{	c #8ECA82",
"]	c #98CE8D",
"^	c #A5D19C",
"/	c #B9DBB5",
"(	c #C6E2C5",
"_	c #D3E8D2",
":	c #DEEEDD",
"<	c #D5E7D7",
"[	c #4B7E51",
"}	c #80BF76",
"|	c #85C37A",
"1	c #87C57B",
"2	c #8CC680",
"3	c #91C989",
"4	c #97CB90",
"5	c #53A362",
"6	c #3A634D",
"7	c #44754C",
"8	c #62A45E",
"9	c #69AF64",
"0	c #70B66B",
"a	c #7DBD79",
"b	c #90C68D",
"c	c #356043",
"d	c #396442",
"e	c #3E6D46",
"f	c #539158",
"g	c #74BE7A",
"h	c #447E56",
"i	c #3F7356",
"j	c #3C6A52",
"k	c #3A6656",
"                ",
"      .         ",
"      ..        ",
"      .+.       ",
"   ....@+.      ",
"   #$%&*=+.     ",
"   -;>,')!+.    ",
"   ~{]^/(_:<.   ",
"   [}|123456    ",
"   7890ab56     ",
"   cdefg56      ",
"      h56       ",
"      ij        ",
"      k         ",
"                ",
"                "};
