/* XPM */
static char * arrow_up_16x16_xpm[] = {
"16 16 50 1",
" 	c None",
".	c #7AB587",
"+	c #D5E7D7",
"@	c #3A634D",
"#	c #FFFFFF",
"$	c #DEEEDD",
"%	c #53A362",
"&	c #E5F2E4",
"*	c #D3E8D2",
"=	c #97CB90",
"-	c #DFF0DD",
";	c #DCEDDB",
">	c #C6E2C5",
",	c #91C989",
"'	c #90C68D",
")	c #EEF7EB",
"!	c #DDF1D8",
"~	c #D7EAD6",
"{	c #B9DBB5",
"]	c #8CC680",
"^	c #7DBD79",
"/	c #74BE7A",
"(	c #3C6A52",
"_	c #E1F0E0",
":	c #D2E7D1",
"<	c #A5D19C",
"[	c #87C57B",
"}	c #70B66B",
"|	c #539158",
"1	c #447E56",
"2	c #3F7356",
"3	c #3A6656",
"4	c #E6F2E6",
"5	c #C6E3C3",
"6	c #98CE8D",
"7	c #85C37A",
"8	c #69AF64",
"9	c #3E6D46",
"0	c #DEF0DA",
"a	c #AAD8A2",
"b	c #8ECA82",
"c	c #80BF76",
"d	c #62A45E",
"e	c #396442",
"f	c #81B180",
"g	c #619365",
"h	c #56895B",
"i	c #4B7E51",
"j	c #44754C",
"k	c #356043",
"                ",
"                ",
"                ",
"       .        ",
"      .+@       ",
"     .#$%@      ",
"    .#&*=%@     ",
"   .#-;>,'%@    ",
"  .#)!~{]^/%(   ",
" ...._:<[}|123  ",
"    .456789     ",
"    .0abcde     ",
"    .fghijk     ",
"                ",
"                ",
"                "};
