/* XPM */
static char * b16x16_xpm[] = {
"16 16 33 1",
" 	c #FFFFFF",
".	c #939BC5",
"+	c #4D5A9F",
"@	c #737DB3",
"#	c #606BA9",
"$	c #6B76AF",
"%	c #C7CBE1",
"&	c #5C68A7",
"*	c #FEFEFF",
"=	c #F2F3F8",
"-	c #525FA2",
";	c #5965A5",
">	c #5D69A8",
",	c #EFF0F6",
"'	c #515EA1",
")	c #6571AC",
"!	c #7781B6",
"~	c #5864A5",
"{	c #7A83B7",
"]	c #E6E8F1",
"^	c #FEFEFE",
"/	c #BCC1DB",
"(	c #A6ACCF",
"_	c #5763A4",
":	c #5460A3",
"<	c #FCFCFD",
"[	c #EDEEF5",
"}	c #4E5BA0",
"|	c #949BC5",
"1	c #6C77B0",
"2	c #616CAA",
"3	c #707AB2",
"4	c #D1D4E6",
"                ",
"                ",
"                ",
"                ",
"    .++@#$%     ",
"     &+*=-;     ",
"     >+ ,')     ",
"     >+!~{]     ",
"     >+^/+(     ",
"     >+ *_:     ",
"     &+<[}#     ",
"    |++1234     ",
"                ",
"                ",
"                ",
"                "};
