/* XPM */
static char * CmdExport32x32_xpm[] = {
"32 32 8 1",
" 	c None",
".	c #808080",
"+	c #FFFFFF",
"@	c #FFFF00",
"#	c #C0C0C0",
"$	c #000000",
"%	c #808000",
"&	c #000080",
"   .....                        ",
"  .+++++.                       ",
"..+@#@#@#.                      ",
".#########.......               ",
".++++++++++++++++$              ",
".+@#@#@#@#@#@#@#@%$             ",
".+#@#@#@#@#@#@#@#%$             ",
".+@#@#@#@#@#@#@#@%$             ",
".+#@#@#@#@#@#@#@#%$             ",
".+@#@#@#@#@#@#@#@%$             ",
".+#@#@#@#@#@#@#@#%$             ",
".+@#@#@#@#@#@#@#@%$             ",
".+#@#@#@#@#@#@#@#%$             ",
".+@#@#@#@#@#@#@#.....           ",
".+#@#@#@#@#@#@#.+++++.          ",
"...............+@#@#@#.         ",
" $$$$$$$$$$$$.#########.......  ",
"             .++++++++++++++++$ ",
"   &         .+@#@#@#@#@#@#@#@%$",
"  &&         .+#@#@#@#@#@#@#@#%$",
"  &          .+@#@#@#@#@#@#@#@%$",
" &           .+#@#@#@#@#@#@#@#%$",
" &           .+@#@#@#@#@#@#@#@%$",
" &           .+#@#@#@#@#@#@#@#%$",
" &           .+@#@#@#@#@#@#@#@%$",
"  &     &    .+#@#@#@#@#@#@#@#%$",
"  &&&   &&   .+@#@#@#@#@#@#@#@%$",
"   &&&&&&&&  .+#@#@#@#@#@#@#@#%$",
"    &&&&&&&& .................%$",
"      &&&&&   $$$$$$$$$$$$$$$$$$",
"        &&                      ",
"        &                       "};
