/* XPM */
static char * CmdImport32x32_xpm[] = {
"32 32 7 1",
" 	c None",
".	c #808080",
"+	c #000000",
"@	c #04359E",
"#	c #C0C0C0",
"$	c #FFFFFF",
"%	c #00FF00",
"                  .+++++++++++++",
"            @@    .+...........+",
"            @@@   .+.+++++++++.+",
"            @@@@  .+.+#######+.+",
"            @@@@@ .+.+#######+.+",
"        @@@@@@@@@@.+.+#######+.+",
"      @@@@@@@@@@@ .+.+#######+.+",
"    @@@@@@  @@@@  .+.+++++++++.+",
"   @@@@@    @@@   .+...........+",
"   @@@      @@    .+...........+",
"  @@@@      @     .+.+++++++++.+",
"  @@@             .+...........+",
"  @@              .+...........+",
" @@@              .+.+++++++++.+",
" @@@              .+...........+",
" @@               .+...........+",
" @                .+...........+",
"                  .+.+++++++++.+",
"  ..........      .+...........+",
" .#########.+     .+...........+",
" .#+++++++#.+     .+...........+",
" .#+$%%%%%#.+     .+.+++++++++.+",
" .#+$%%%%%#.+     .+...........+",
" .#+%%%%%%#.+     .+...........+",
" .#+%%%%%%#.+     .+...........+",
" .#.......#.+     .+++++++++++++",
" .#########.+                   ",
" .++++++++++.+                  ",
".$$$$$$$$$$$.+                  ",
".$######+++#.+                  ",
".............+                  ",
" ++++++++++++                   "};
