/* XPM */
static char * CmdTimerDisabled32x32_xpm[] = {
"32 32 7 1",
" 	c None",
".	c #000000",
"+	c #FE0202",
"@	c #FEFEFE",
"#	c #FFFF00",
"$	c #C0C0C0",
"%	c #808080",
"                                ",
"                                ",
"                                ",
"                                ",
"            .......   $$        ",
"         $$$#######..$$++       ",
"        $$++.......#$$+++.      ",
"       .$+++.@@@@@@$$+++..      ",
"      .#$++++.@.@@$$+++..       ",
"     .##.$+++.@.@$$+++..#.      ",
"     .#.@$++++..$$+++...#.      ",
"    .#.@@@$++++$$+++..%@.#.     ",
"    .#.@.@$+++++++++.%.@.#.     ",
"   .#.@@@@@$+++++++..@@@@.#.    ",
"   .#.@@@@@$++++++..@@@@@.#.    ",
"   .#.@@@@@$++++++.@@@@@@.#.    ",
"   .#.@...$$++++++.@@...@.#.    ",
"   .#.@@@$$++++++++.@@@@@.#.    ",
"   .#.@@$$++++++++++.@@@@.#.    ",
"   .#.@$$++++++++++++.@@@.#.    ",
"    .#.$+++++..+++++++.@.#.     ",
"    .#$$++++..@$++++++.@.#.     ",
"     .$++++..@@.$++++...#.      ",
"     .$+++..@@@.@$++...##.      ",
"      $+++.@@@@.@$+...##.       ",
"      $++...@@@@@@$..##.        ",
"        ..##.......##..         ",
"          ..#######..           ",
"            .......             ",
"                                ",
"                                ",
"                                "};
