/* XPM */
static char * CmdTimer32x32_xpm[] = {
"32 32 5 1",
" 	c None",
".	c #FFFFFF",
"+	c #000000",
"@	c #FFFF00",
"#	c #808080",
"                                ",
"                                ",
"                                ",
"                                ",
"            +++++++             ",
"          ++@@@@@@@++           ",
"        ++@@+++++++@@++         ",
"       +@@++.......++@@+        ",
"      +@@+.....+.....+@@+       ",
"     +@@+..+...+...+..+@@+      ",
"     +@+.......+.......+@+      ",
"    +@+.............++#.+@+     ",
"    +@+.+..........++#+.+@+     ",
"   +@+............++#....+@+    ",
"   +@+...........++#.....+@+    ",
"   +@+..........++#......+@+    ",
"   +@+.+++.....++#...+++.+@+    ",
"   +@+.........+#........+@+    ",
"   +@+...................+@+    ",
"   +@+...................+@+    ",
"    +@+.+.............+.+@+     ",
"    +@+.................+@+     ",
"     +@+.......+.......+@+      ",
"     +@@+..+...+...+..+@@+      ",
"      +@@+.....+.....+@@+       ",
"       +@@++.......++@@+        ",
"        ++@@+++++++@@++         ",
"          ++@@@@@@@++           ",
"            +++++++             ",
"                                ",
"                                ",
"                                "};
