/* XPM */
static char * CmdWorkbench32x32_xpm[] = {
"32 32 7 1",
" 	c None",
".	c #C0C0C0",
"+	c #FFFF00",
"@	c #FFFFFF",
"#	c #000000",
"$	c #808080",
"%	c #808000",
"                                ",
"                                ",
"       $$$$$$$$$                ",
"      $@@@@@@@@@$               ",
"     $@+.+.+.+.+.$              ",
"    $@+.+.+.+.+.+.$             ",
"   $@+.+.+.+.+.+.+.$$$$$$$$$$$  ",
"   $@.+.+.+.+.+.+.+@@@@@@@@@@@# ",
"   $@+.+.+.+.+.+.+.+.+.+.+.+.+%#",
"   $@.+.+.+.+.+.+.+.+.+.+.+.+.%#",
"   $@+.+.+.+.+.+.+.+.+.+.+.+.+%#",
" $$.........................+.%#",
"$@@@@@@@@@@@@@@@@@@@@@@@@@@#$+%#",
"$+.+.+.+.+.+.+.+.+.+.+.+.+.$#.%#",
"$.+.+.+.+.+.+.+.+.+.+.+.+.+$#+%#",
"$+.+.+.+.+.+.+.+.+.+.+.+.+.+#$%#",
"$.+.+.+.+.+.+.+.+.+.+.+.+.+.#$%#",
" $.+.+.+.+.+.+.+.+.+.+.+.+.+$#%#",
" $+.+.+.+.+.+.+.+.+.+.+.+.+.$#%#",
" $.+########.+.+.+.+.+.+.+.+.#%#",
" $+#@@@@@@@@#.+.+.+.+.+.+.+.+#%#",
"  #@@@@##@@@@#.+.+.+.+.+.+.+.$##",
" #@@@@@##@@@@@#.+.+.+.+.+.+.+$##",
" #@@@@@##@@@@@#+.+.+.+.+.+.+..##",
" #@@########@@#.+.+.+.+.+.+.+.##",
" #@@########@@#+.+.+.+.+.+.+.+%#",
" #@@@@@##@@@@@#.+.+.+.+.+.+.+.%#",
" #@@@@@##@@@@@#%%%%%%%%%%%%%%%%#",
"  #@@@@##@@@@################## ",
"   #@@@@@@@@#                   ",
"    ########                    ",
"                                "};
