/* XPM */
static char * commit_16x16_xpm[] = {
"16 16 56 1",
" 	c None",
".	c #7AB587",
"+	c #7FB281",
"@	c #6FA171",
"#	c #639566",
"$	c #548759",
"%	c #3E7147",
"&	c #3A634D",
"*	c #355D3F",
"=	c #FFFFFF",
"-	c #EEF7EB",
";	c #DDF1D8",
">	c #D7EAD6",
",	c #B9DBB5",
"'	c #8CC680",
")	c #7DBD79",
"!	c #74BE7A",
"~	c #53A362",
"{	c #D5E7D7",
"]	c #DEEEDD",
"^	c #E5F2E4",
"/	c #D3E8D2",
"(	c #97CB90",
"_	c #DFF0DD",
":	c #DCEDDB",
"<	c #C6E2C5",
"[	c #91C989",
"}	c #90C68D",
"|	c #3C6A52",
"1	c #E1F0E0",
"2	c #D2E7D1",
"3	c #A5D19C",
"4	c #87C57B",
"5	c #70B66B",
"6	c #539158",
"7	c #447E56",
"8	c #3F7356",
"9	c #3A6656",
"0	c #E6F2E6",
"a	c #C6E3C3",
"b	c #98CE8D",
"c	c #85C37A",
"d	c #69AF64",
"e	c #3E6D46",
"f	c #DEF0DA",
"g	c #AAD8A2",
"h	c #8ECA82",
"i	c #80BF76",
"j	c #62A45E",
"k	c #396442",
"l	c #81B180",
"m	c #619365",
"n	c #56895B",
"o	c #4B7E51",
"p	c #44754C",
"q	c #356043",
"                ",
"  ...+@#$%&&*   ",
"  .=-;>,')!~*   ",
"  ...+@#$%&&*   ",
"                ",
"       .        ",
"      .{&       ",
"     .=]~&      ",
"    .=^/(~&     ",
"   .=_:<[}~&    ",
"  .=-;>,')!~|   ",
" ....123456789  ",
"    .0abcde     ",
"    .fghijk     ",
"    .lmnopq     ",
"                "};
