/* XPM */
static char * Compress32x32_xpm[] = {
"32 32 7 1",
" 	c None",
".	c #000000",
"+	c #FFFFFF",
"@	c #C0C0C0",
"#	c #808080",
"$	c #FFFF00",
"%	c #808000",
"                                ",
"  .............                 ",
"  .++++++++++.+.                ",
"  .++++++++++.++.               ",
"  .++++++++++.+++.              ",
"  .++@@@@@@@@.++++.         ..  ",
"  .++++++++++......        .@@. ",
"  .++@@@@@@@@@@@@@.       .+@#+.",
"  .+++++++++++++++.       .@###.",
"   .++@@@@@@@@@++.        .@###.",
"   #+++++++++++++#        .@###.",
"    #.++@@@@@++.#          .##. ",
"      .+++++++.             ..  ",
"   .....+#@#@....  .......  ..  ",
"  ..$+$.#+++#.+$....$$$$$$....  ",
" .$.$%$.##@##.$$.+@.$##$$$.+@@. ",
" .%$.$%.#+++#.$%.##..%$%$%.###. ",
".$$%.%$.##@##.$$.....$%$.$....  ",
".$%$....#+++#....  ..$$%..  ..  ",
".$$.######@#@#.     .$%.    ..  ",
".$%$.++++++++++.   .$$$.   .@@. ",
".%$%$..............$$$%.  .+@#@.",
" .%$%$$+$+$+$+$+$+$$$%.   .@###.",
" .$%$%$$$$$$$$$$$$$$%$.   .@###.",
"  ..%$%$%$%$%$%$%$%$..    .@###.",
"  #+................       .##. ",
"  .++@@############         ..  ",
"  .++++@@@@@@@@@@@.             ",
"  .++@@@@@@@@@@@@@.             ",
"  .+++++++++++++++.             ",
"  .................             ",
"                                "};
