/* XPM */
static char * Connect32x16_02_xpm[] = {
"32 16 6 1",
" 	c None",
".	c #808080",
"+	c #C0C0C0",
"@	c #000000",
"#	c #FFFFFF",
"$	c #00FF00",
"                                ",
"   ..........      ..........   ",
"  .+++++++++.@    .+++++++++.@  ",
"  .+@@@@@@@+.@    .+@@@@@@@+.@  ",
"  .+@#$$$$$+.@    .+@#$$$$$+.@  ",
"  .+@#$$$$$+.@    .+@#$$$$$+.@  ",
"  .+@$$$$$$+.@    .+@$$$$$$+.@  ",
"  .+@$$$$$$+.@    .+@$$$$$$+.@  ",
"  .+.......+.@    .+.......+.@  ",
"  .+++++++++.@    .+++++++++.@  ",
"  .@@@@@@@@@@.@   .@@@@@@@@@@.@ ",
" .###########.@  .###########.@ ",
" .#++++++@@@+.@  .#++++++@@@+.@ ",
" .............@  .............@ ",
"  @@@@@@@@@@@@    @@@@@@@@@@@@  ",
"                                "};
