/* XPM */
static char * cvs_annotate_16x16_xpm[] = {
"16 16 62 1",
" 	c None",
".	c #7AB587",
"+	c #F2F8F3",
"@	c #D7E9DA",
"#	c #C4DFC9",
"$	c #FFFFFF",
"%	c #3A634D",
"&	c #DFEEE2",
"*	c #B3D6B9",
"=	c #EDF5EE",
"-	c #E2EFE4",
";	c #CCE4D1",
">	c #C3DFC8",
",	c #B2D6B9",
"'	c #ABD2B3",
")	c #A3CEAB",
"!	c #E6F2E9",
"~	c #DBEBDE",
"{	c #CFE5D3",
"]	c #BADAC0",
"^	c #B0D5B7",
"/	c #A7D0AF",
"(	c #A0CCA8",
"_	c #9AC9A3",
":	c #96C79F",
"<	c #FAFCFA",
"[	c #EDF5EF",
"}	c #E1EFE4",
"|	c #D5E8D8",
"1	c #C9E2CE",
"2	c #BDDCC3",
"3	c #9DCBA6",
"4	c #95C69E",
"5	c #8EC298",
"6	c #89C093",
"7	c #F6FAF7",
"8	c #E9F3EB",
"9	c #82BC8D",
"0	c #7CB988",
"a	c #F3F9F4",
"b	c #D9EBDD",
"c	c #C0DDC5",
"d	c #A6CFAE",
"e	c #78B784",
"f	c #70B27D",
"g	c #E5F1E7",
"h	c #65AD73",
"i	c #F1F7F2",
"j	c #E4F0E6",
"k	c #CAE2CE",
"l	c #BCDBC2",
"m	c #AFD4B6",
"n	c #A2CDAA",
"o	c #87BF92",
"p	c #7AB886",
"q	c #6DB17A",
"r	c #60AA6E",
"s	c #DDECE0",
"t	c #D0E6D4",
"u	c #B7D8BD",
"v	c #8BC195",
"w	c #F8FBF9",
"   ..+..@..#..  ",
"  .$%%&%%#%%*%. ",
" .$.=-.;>.,'.)% ",
" .$+!~{#]^/(_:% ",
" .<[}|12,/3456% ",
" .78%%%%%%%%90% ",
" .a!b;c*d_59ef% ",
" .+g%%%%%%%%fh% ",
" .ij@klmn4opqr% ",
" .+g%%%%%%%%fh% ",
" .a!b;c*d_59ef% ",
" .78st#u'(4v90% ",
" .<[}|12,/3456% ",
" .$+!~{#]^/(_:% ",
" ..w=-@;>],'d%% ",
"   %%%%%%%%%%%  "};
