/* XPM */
static char * cvs_watch_on_16x16_xpm[] = {
"16 16 21 1",
" 	c None",
".	c #121212",
"+	c #000000",
"@	c #040404",
"#	c #0B0B0B",
"$	c #FAFAFA",
"%	c #020202",
"&	c #454545",
"*	c #FEFEFE",
"=	c #3C3C3C",
"-	c #FCFCFC",
";	c #FFFFFF",
">	c #303030",
",	c #0A0A0A",
"'	c #C4C4C4",
")	c #060606",
"!	c #DDDDDD",
"~	c #FDFDFD",
"{	c #343434",
"]	c #292929",
"^	c #2A2A2A",
"  .++.     @+@  ",
" #+$$+#   %&*&% ",
"=+-;;-+= >+*;*+>",
",';;;;', )!;;;!)",
"+~;;;;~+ +*;;;*+",
"+*;;;;*+ +*;;;*+",
"+*;;;;*+ +*;;;*+",
"+~;;{+]+ +^+{;*+",
",';;+++, )+++;!)",
"=+-;+++= >+++*+>",
" #+$+++   +++&% ",
"  .++++   +++@  ",
"                ",
"                ",
"                ",
"                "};
