/* XPM */
static char * cvs_watch_add_16x16_xpm[] = {
"16 16 36 1",
" 	c None",
".	c #0D0D0D",
"+	c #323232",
"@	c #131313",
"#	c #353535",
"$	c #111111",
"%	c #262626",
"&	c #424242",
"*	c #DDDDDD",
"=	c #797979",
"-	c #E7E7E7",
";	c #515151",
">	c #1D1D1D",
",	c #363636",
"'	c #C9C9C9",
")	c #FFFFFF",
"!	c #5B5B5B",
"~	c #E8E8E8",
"{	c #D2D2D2",
"]	c #3F3F3F",
"^	c #FEFEFE",
"/	c #7F7F7F",
"(	c #404040",
"_	c #5D5D5D",
":	c #4F4F4F",
"<	c #181818",
"[	c #303030",
"}	c #484848",
"|	c #8D8D8D",
"1	c #000000",
"2	c #080808",
"3	c #242424",
"4	c #101010",
"5	c #282828",
"6	c #050505",
"7	c #F70707",
" .++.   @#$     ",
"%&**&% $=-;>    ",
",'))', !~){,    ",
"]^))^] /))^(    ",
"]^))^] /))^]    ",
"]^)_:< [}|^]    ",
",')11$ 21({,    ",
"%&*113 415;>    ",
" .+11  116$77   ",
"           77   ",
"           77   ",
"        77777777",
"        77777777",
"           77   ",
"           77   ",
"           77   "};
