/* XPM */
static char * image[] = 
{
"16 16 256 2",
"AA c #000000",
"AB c #FF0000",
"AC c #FFD000",
"AD c #808080",
"AE c #C0C0C0",
"AF c none",
"AG c #000000",
"AH c #FFFFFF",
"AI c #000000",
"AJ c #000000",
"AK c #000000",
"AL c #000000",
"AM c #000000",
"AN c #000000",
"AO c #000000",
"AP c #000000",
"AQ c #000000",
"AR c #000000",
"AS c #000000",
"AT c #000000",
"AU c #000000",
"AV c #000000",
"AW c #000000",
"AX c #000000",
"AY c #000000",
"AZ c #000000",
"BA c #000000",
"BB c #000000",
"BC c #000000",
"BD c #000000",
"BE c #000000",
"BF c #000000",
"BG c #000000",
"BH c #000000",
"BI c #000000",
"BJ c #000000",
"BK c #000000",
"BL c #000000",
"BM c #000000",
"BN c #000000",
"BO c #000000",
"BP c #000000",
"BQ c #000000",
"BR c #000000",
"BS c #000000",
"BT c #000000",
"BU c #000000",
"BV c #000000",
"BW c #000000",
"BX c #000000",
"BY c #000000",
"BZ c #000000",
"CA c #000000",
"CB c #000000",
"CC c #000000",
"CD c #000000",
"CE c #000000",
"CF c #000000",
"CG c #000000",
"CH c #000000",
"CI c #000000",
"CJ c #000000",
"CK c #000000",
"CL c #000000",
"CM c #000000",
"CN c #000000",
"CO c #000000",
"CP c #000000",
"CQ c #000000",
"CR c #000000",
"CS c #000000",
"CT c #000000",
"CU c #000000",
"CV c #000000",
"CW c #000000",
"CX c #000000",
"CY c #000000",
"CZ c #000000",
"DA c #000000",
"DB c #000000",
"DC c #000000",
"DD c #000000",
"DE c #000000",
"DF c #000000",
"DG c #000000",
"DH c #000000",
"DI c #000000",
"DJ c #000000",
"DK c #000000",
"DL c #000000",
"DM c #000000",
"DN c #000000",
"DO c #000000",
"DP c #000000",
"DQ c #000000",
"DR c #000000",
"DS c #000000",
"DT c #000000",
"DU c #000000",
"DV c #000000",
"DW c #000000",
"DX c #000000",
"DY c #000000",
"DZ c #000000",
"EA c #000000",
"EB c #000000",
"EC c #000000",
"ED c #000000",
"EE c #000000",
"EF c #000000",
"EG c #000000",
"EH c #000000",
"EI c #000000",
"EJ c #000000",
"EK c #000000",
"EL c #000000",
"EM c #000000",
"EN c #000000",
"EO c #000000",
"EP c #000000",
"EQ c #000000",
"ER c #000000",
"ES c #000000",
"ET c #000000",
"EU c #000000",
"EV c #000000",
"EW c #000000",
"EX c #000000",
"EY c #000000",
"EZ c #000000",
"FA c #000000",
"FB c #000000",
"FC c #000000",
"FD c #000000",
"FE c #000000",
"FF c #000000",
"FG c #000000",
"FH c #000000",
"FI c #000000",
"FJ c #000000",
"FK c #000000",
"FL c #000000",
"FM c #000000",
"FN c #000000",
"FO c #000000",
"FP c #000000",
"FQ c #000000",
"FR c #000000",
"FS c #000000",
"FT c #000000",
"FU c #000000",
"FV c #000000",
"FW c #000000",
"FX c #000000",
"FY c #000000",
"FZ c #000000",
"GA c #000000",
"GB c #000000",
"GC c #000000",
"GD c #000000",
"GE c #000000",
"GF c #000000",
"GG c #000000",
"GH c #000000",
"GI c #000000",
"GJ c #000000",
"GK c #000000",
"GL c #000000",
"GM c #000000",
"GN c #000000",
"GO c #000000",
"GP c #000000",
"GQ c #000000",
"GR c #000000",
"GS c #000000",
"GT c #000000",
"GU c #000000",
"GV c #000000",
"GW c #000000",
"GX c #000000",
"GY c #000000",
"GZ c #000000",
"HA c #000000",
"HB c #000000",
"HC c #000000",
"HD c #000000",
"HE c #000000",
"HF c #000000",
"HG c #000000",
"HH c #000000",
"HI c #000000",
"HJ c #000000",
"HK c #000000",
"HL c #000000",
"HM c #000000",
"HN c #000000",
"HO c #000000",
"HP c #000000",
"HQ c #000000",
"HR c #000000",
"HS c #000000",
"HT c #000000",
"HU c #000000",
"HV c #000000",
"HW c #000000",
"HX c #000000",
"HY c #000000",
"HZ c #000000",
"IA c #000000",
"IB c #000000",
"IC c #000000",
"ID c #000000",
"IE c #000000",
"IF c #000000",
"IG c #000000",
"IH c #000000",
"II c #000000",
"IJ c #000000",
"IK c #000000",
"IL c #000000",
"IM c #000000",
"IN c #000000",
"IO c #000000",
"IP c #000000",
"IQ c #000000",
"IR c #000000",
"IS c #000000",
"IT c #000000",
"IU c #000000",
"IV c #000000",
"IW c #000000",
"IX c #000000",
"IY c #000000",
"IZ c #000000",
"JA c #000000",
"JB c #000000",
"JC c #000000",
"JD c #000000",
"JE c #000000",
"JF c #000000",
"JG c #000000",
"JH c #000000",
"JI c #000000",
"JJ c #000000",
"JK c #000000",
"JL c #000000",
"JM c #000000",
"JN c #000000",
"JO c #000000",
"JP c #000000",
"JQ c #000000",
"JR c #000000",
"JS c #000000",
"JT c #000000",
"JU c #000000",
"JV c #000000",
"AFADADADADADADADADADADACAFAFAFAF",
"AFADABABABABABABACABABACADAFACAF",
"AFADABABABABABABABACABACABACAFAF",
"AFADABABABABABABABABACACACAAAAAF",
"AFADABABABABABACACACACACACACACAC",
"AFADABABADADADADADADACACACAEAAAF",
"AFADABABABABABABABACABACABACAAAF",
"AFADABABADADADADACADADACABAEACAF",
"AFADABABABABABABABABABACABAEAAAF",
"AFADABABADADADADADADADABABAEAAAF",
"AFADABABABABABABABABABABABAEAAAF",
"AFADABABADADADADADADADABABAEAAAF",
"AFADABABABABABABABABABABABAEAAAF",
"AFADABABABABABABABABABABABAEAAAF",
"AFADAEAEAEAEAEAEAEAEAEAEAEAEAAAF",
"AFAAAAAAAAAAAAAAAAAAAAAAAAAAAAAF",
"XPMENDEXT"
};