/* XPM */
static char * FileStatus16x16_xpm[] = {
"16 16 5 1",
" 	c None",
".	c #808080",
"+	c #000000",
"@	c #FFFFFF",
"#	c #C0C0C0",
" ......++++++   ",
" .@@@@+@@@@@@+  ",
" .@@@+@@++++@@+ ",
" .@@+@@++@@++@@+",
" .@@+@@++@@++@@+",
" .@@+@@@@@++@@@+",
" .@@+@@@@++@@@@+",
" .@@+@@@@@@@@@@+",
" .@@@+@@@++@@@+ ",
" .@@..+@@@@@@+  ",
" .@@@@@+++++++  ",
" .@@......@@#+  ",
" .@@@@@@@@@@#+  ",
" .@@@@@@@@@@#+  ",
" .###########+  ",
" +++++++++++++  "};
