/* XPM */
static char * FileNeedsPatch16x16_xpm[] = {
"16 16 6 1",
" 	c None",
".	c #808080",
"+	c #102BC9",
"@	c #FFFFFF",
"#	c #000000",
"$	c #C0C0C0",
" ..........     ",
" .++++++++..    ",
" .++++++++.@.   ",
" .++++++++####  ",
" .++++++++++$#  ",
" .++++++++++$#  ",
" .++++@+@+++$#  ",
" .+++$$@$$++$#  ",
" .+++@@@@@++$#  ",
" .+++$$@$$++$#  ",
" .++++@+@+++$#  ",
" .++++++++++$#  ",
" .++++++++++$#  ",
" .++++++++++$#  ",
" .$$$$$$$$$$$#  ",
" #############  "};
