/* XPM */
static char * FileLocked16x16_xpm[] = {
"16 16 7 1",
" 	c None",
".	c #808080",
"+	c #000000",
"@	c #FFFFFF",
"#	c #808000",
"$	c #FFFF00",
"%	c #C0C0C0",
" ....+++...     ",
" .@@+@##+@..    ",
" .@@+#$%++.@.   ",
" .@@#$%++$++++  ",
" .@@#$+@+$+@%+  ",
" .@@#$.+.$+@%+  ",
" .@@#$$.$#+@%+  ",
" .@@@#@$#+@@%+  ",
" .@@@@#$+@@@%+  ",
" .@@@@#$+@@@%+  ",
" .@@@@#$+@@@%+  ",
" .@@@@#$+@@@%+  ",
" .@@@#@$+@@@%+  ",
" .@@@#@$+@@@%+  ",
" .%%%%#$+%%%%+  ",
" +++++++++++++  "};
