/* XPM */
static char * FileNeedsMerge16x16_xpm[] = {
"16 16 7 1",
" 	c None",
".	c #808080",
"+	c #0A10B2",
"@	c #FFFFFF",
"#	c #000000",
"$	c #C0C0C0",
"%	c #FF000C",
" ..........     ",
" .++++++++..    ",
" .++++++++.@.   ",
" .+++++@++####  ",
" .+++++@@+++$#  ",
" .+++@@@@@++$#  ",
" .++@.+@@+%+$#  ",
" .++@%%@%%%%$#  ",
" .%+.%%%%.%%$#  ",
" .%%%%@%%@%%$#  ",
" .%%%@@%.@%%$#  ",
" .%%@@@@@%%%$#  ",
" .%%%@@%%%%%$#  ",
" .%%%%@%%%%%$#  ",
" .$$$$$$$$$$$#  ",
" #############  "};
