/* XPM */
static char * FileModified16x16_xpm[] = {
"16 16 9 1",
" 	c None",
".	c #808080",
"+	c #E81442",
"@	c #FFFFFF",
"#	c #800000",
"$	c #000000",
"%	c #808000",
"&	c #C0C0C0",
"*	c #FFFF00",
" ..........     ",
" .++++++++..    ",
" .++++++++.@.## ",
" .++++++++$$%&# ",
" .+++++++++%*$  ",
" .++......%*$$  ",
" .+++++++%*$&$  ",
" .++....%*$+&$  ",
" .+++++%*$++&$  ",
" .++...*$.++&$  ",
" .++++$$$+++&$  ",
" .++...$..++&$  ",
" .++++++++++&$  ",
" .++++++++++&$  ",
" .&&&&&&&&&&&$  ",
" $$$$$$$$$$$$$  "};
