/* XPM */
static char *FolderClosedUncommitted16x16[]={
"16 16 8 1",
". c None",
"d c #000000",
"f c #800000",
"# c #808080",
"a c #c0c0c0",
"e c #ff0000",
"b c #ffff00",
"c c #ffffff",
"................",
"..#####.........",
".#ababa#........",
"#abababa######..",
"#cccccccccccc#d.",
"#cbababababab#d.",
"#cababebebaba#d.",
"#cbabaafaabab#d.",
"#cabaeeeeeaba#d.",
"#cbabaafaabab#d.",
"#cababebebaba#d.",
"#cbababababab#d.",
"##############d.",
".dddddddddddddd.",
"................",
"................"};
