/* XPM */
static char *FolderClosedProblemAuto26x16[]={
"26 16 8 1",
". c None",
"d c #000000",
"# c #808080",
"f c #c00000",
"a c #c0c0c0",
"e c #ff0000",
"b c #ffff00",
"c c #ffffff",
"..........................",
"..#####...................",
".#ababa#..................",
"#abababa######............",
"#cccccccccccc#d...........",
"#cbababaeeeee#d...........",
"#cababeeeeeeeee..eee.fee..",
"#cbabaeeeeeeeee..fee...fe.",
"#cabaeecceeecceefefe....e.",
"#cbabeeeccecceeeef.....fe.",
"#cabaeeeeccceeeee....efef.",
"#cbabeeeccecceeeef...eef..",
"#####eecceeeccee.eef.eee..",
".dddddeeeeeeeee...........",
"......eeeeeeeee...........",
"........eeeee............."};
