/* XPM */
static char * FolderStatus16x16_xpm[] = {
"16 16 6 1",
" 	c None",
".	c #000000",
"+	c #FFFFFF",
"@	c #808080",
"#	c #C0C0C0",
"$	c #FFFF00",
"       ......   ",
"      .++++++.  ",
"     .++....++. ",
"  @@.++..++..++.",
" @#$.++..++..++.",
"@#$#.+++++..+++.",
"@+++.++++..++++.",
"@+$#.++++++++++.",
"@+#$#.+++..+++. ",
"@+$#$#.++++++.. ",
"@+#$#$#......@. ",
"@+$#$#$#$#$#$@. ",
"@+#$#$#$#$#$#@. ",
"@+$#$#$#$#$#$@. ",
"@@@@@@@@@@@@@@. ",
" .............. "};
