/* XPM */
static char * FolderClosedLocked16x16_xpm[] = {
"16 16 6 1",
" 	c None",
".	c #808080",
"+	c #FFFFFF",
"@	c #FFFF00",
"#	c #C0C0C0",
"$	c #000000",
"                ",
"  .....         ",
" .+@.@@.        ",
".@#.#$#@......  ",
".++.+$+++++++.$ ",
".+@.#$@#@#@#@.$ ",
".+##$##@#@#@#.$ ",
".+@$.$@#@#@#@.$ ",
".+##.##@#@#@#.$ ",
".+@$.$@#@#@#@.$ ",
".+##.##@#@#@#.$ ",
".+@$.$@#@#@#@.$ ",
"..............$ ",
" $$$$$$$$$$$$$$ ",
"                ",
"                "};
