/* XPM */
static char *FolderClosedUncommittedAuto26x16[]={
"26 16 9 1",
". c None",
"d c #000000",
"g c #800000",
"# c #808080",
"f c #c00000",
"a c #c0c0c0",
"e c #ff0000",
"b c #ffff00",
"c c #ffffff",
"..........................",
"..#####...................",
".#ababa#..................",
"#abababa######............",
"#cccccccccccc#d...........",
"#cbababababab#d...........",
"#cababebebaba#d..eee.fee..",
"#cbabaagaabab#d..fee...fe.",
"#cabaeeeeeaba#d.fefe....e.",
"#cbabaagaabab#d.ef.....fe.",
"#cababebebaba#d.e....efef.",
"#cbababababab#d.ef...eef..",
"##############d..eef.eee..",
".dddddddddddddd...........",
"..........................",
".........................."};
