/* XPM */
static char *FolderMissing16x16[]={
"16 16 5 1",
". c None",
"c c #000000",
"a c #0000c0",
"# c #808080",
"b c #ffffff",
"................",
"..#####.........",
".#aaaaa#........",
"#aaaaaaa######..",
"#bbbbbbbbbbbb#c.",
"#baaaaaaaaaaa#c.",
"#baaaaaaaaaaa#c.",
"#baaaaaaaaaaa#c.",
"#baaaaaaaaaaa#c.",
"#baaaaaaaaaaa#c.",
"#baaaaaaaaaaa#c.",
"#baaaaaaaaaaa#c.",
"##############c.",
".cccccccccccccc.",
"................",
"................"};
