/* XPM */
static char *FolderClosedAuto16x16[]={
"26 16 8 1",
". c None",
"d c #000000",
"# c #808080",
"f c #c00000",
"a c #c0c0c0",
"e c #ff0000",
"b c #ffff00",
"c c #ffffff",
"..........................",
"..#####...................",
".#ababa#..................",
".abababa######............",
".cccccccccccc#d...........",
".cbababababab#d...........",
".cabababababa#d..eee.fee..",
".cbababababab#d..fee...fe.",
".cabababababa#d.fefe....e.",
".cbababababab#d.ef.....fe.",
".cabababababa#d.e....efef.",
".cbababababab#d.ef...eef..",
".#############d..eef.eee..",
".dddddddddddddd...........",
"..........................",
".........................."};
