/* XPM */
static char *FolderClosedWarnAuto26x16[]={
"26 16 9 1",
". c None",
"d c #000000",
"e c #808000",
"# c #808080",
"g c #c00000",
"a c #c0c0c0",
"f c #ff0000",
"b c #ffff00",
"c c #ffffff",
"..........................",
"..#####...................",
".#ababa#..................",
"#abababa######............",
"#cccccccccccc#d...........",
"#cbabababaeab#d...........",
"#cabababaebda#d..fff.gff..",
"#cbababaebbbd#d..gff...gf.",
"#cababaeebdbd#d.gfgf....f.",
"#cbababebdddbdd.fg.....gf.",
"#cababaeb#d#bdd.f....fgfg.",
"#cbabaebbadabbd.fg...ffg..",
"######ebbbbbbbd..ffg.fff..",
".ddddebbbadabbbd..........",
".....ebbbbbbbbbd..........",
"......edddddddd..........."};
