/* XPM */
static char *FolderClosedLockedNonCVS16x16[]={
"16 16 8 1",
". c None",
"d c #000000",
"f c #00c000",
"e c #00ff00",
"# c #808080",
"c c #c0c0c0",
"b c #ffff00",
"a c #ffffff",
"................",
"..#####.........",
".#ab#bb#........",
"#bc#cdcb######..",
"#aa#adaaaaaaa#d.",
"#ab#cdbcbcbcb#d.",
"#accdcebebcbc#d.",
"#abd#dbfbcbcb#d.",
"#acc#eeeeecbc#d.",
"#abd#dbfbcbcb#d.",
"#acc#cebebcbc#d.",
"#abd#dbcbcbcb#d.",
"##############d.",
".dddddddddddddd.",
"................",
"................"};
