/* XPM */
static char *FolderClosedModifiedAuto26x16[]={
"26 16 10 1",
". c None",
"d c #000000",
"h c #000080",
"e c #0000ff",
"# c #808080",
"g c #c00000",
"a c #c0c0c0",
"f c #ff0000",
"b c #ffff00",
"c c #ffffff",
"..........................",
"..#####...................",
".#ababa#..................",
"#abababa######............",
"#cccccccccccc#d...........",
"#cbababababab#d...........",
"#cababebebaba#d..fff.gff..",
"#cbabaahaabab#d..gff...gf.",
"#cabaeeeeeaba#d.gfgf....f.",
"#cbabaahaabab#d.fg.....gf.",
"#cababebebaba#d.f....fgfg.",
"#cbababababab#d.fg...ffg..",
"##############d..ffg.fff..",
".dddddddddddddd...........",
"..........................",
".........................."};
