/* XPM */
static char * FolderClosedWarn16x16_xpm[] = {
"16 16 7 1",
" 	c None",
".	c #808080",
"+	c #C0C0C0",
"@	c #FFFF00",
"#	c #FFFFFF",
"$	c #000000",
"%	c #808000",
"                ",
"  .....         ",
" .+@+@+.        ",
".+@+@+@+......  ",
".############.$ ",
".#@+@+@+@+%+@.$ ",
".#+@+@+@+%@$+.$ ",
".#@+@+@+%@@@$.$ ",
".#+@+@+%%@$@$.$ ",
".#@+@+@%@$$$@$$ ",
".#+@+@+%@.$.@$$ ",
".#@+@+%@@+$+@@$ ",
"......%@@@@@@@$ ",
" $$$$%@@@+$+@@@$",
"     %@@@@@@@@@$",
"      %$$$$$$$$ "};
