/* XPM */
static char *FolderStatusAuto26x16[]={
"26 16 8 1",
". c None",
"# c #000000",
"b c #808080",
"f c #c00000",
"c c #c0c0c0",
"e c #ff0000",
"d c #ffff00",
"a c #ffffff",
".......######.............",
"......#aaaaaa#............",
".....#aa####aa#...........",
"..bb#aa##aa##aa#..........",
".bcd#aa##aa##aa#..........",
"bcdc#aaaaa##aaa#..........",
"baaa#aaaa##aaaa#.eee.fee..",
"badc#aaaaaaaaaa#.fee...fe.",
"bacdc#aaa##aaa#.fefe....e.",
"badcdc#aaaaaa##.ef.....fe.",
"bacdcdc######b#.e....efef.",
"badcdcdcdcdcdb#.ef...eef..",
"bacdcdcdcdcdcb#..eef.eee..",
"badcdcdcdcdcdb#...........",
"bbbbbbbbbbbbbb#...........",
".##############..........."};
