/* XPM */
static char * LogTree16x16_xpm[] = {
"16 16 10 1",
" 	c None",
".	c #000000",
"+	c #F8FCF8",
"@	c #808080",
"#	c #00FCF8",
"$	c #C0C0C0",
"%	c #F8FC00",
"&	c #FFFFFF",
"*	c #00FC00",
"=	c #F80000",
" ...+@@@@@@     ",
" .#.$+++++@@    ",
" ...$+++++@+@   ",
" +.$$+++++....  ",
" +.$...+++++$.  ",
" +...%.$&&++$.  ",
" +$$...$++++$.  ",
" @++@.$$...++.  ",
" @+++....*.$+.  ",
" @++&.$$...$+.  ",
" @+++.$++$$$+.  ",
" @++&.$&...++.  ",
" @+++....=.$+.  ",
" @++++$$...$+.  ",
" @$$$++++$$$+.  ",
" .............  "};
