/* XPM */
static char * LogTree32x32_xpm[] = {
"32 32 12 1",
" 	c None",
".	c #808080",
"+	c #FFFFFF",
"@	c #000000",
"#	c #00FFFF",
"$	c #C0C0C0",
"%	c #FFFF00",
"&	c #808000",
"*	c #00FF00",
"=	c #008000",
"-	c #FF0000",
";	c #800000",
"   ....................         ",
"   .++++++++++++++++++.@        ",
"   .+@@@@@@+++++++++++..@       ",
"   .+@+++#@$++++++++++.$.@      ",
"   .+@+##+@$++++++++++.+$.@     ",
"   .+@+##+@$++++++++++.++$.@    ",
"   .+@#+++@$+++++++++++@@@@@@   ",
"   .+@@@@@@$++++++++++++$$$$@   ",
"   .++$$@$$$+++++++++++++++$@   ",
"   .++++@$++@@@@@@+++++++++$@   ",
"   .++++@$++@+++%@$++++++++$@   ",
"   .++++@@@@@+%%&@$++++++++$@   ",
"   .+++++$$$@+%%&@$++++++++$@   ",
"   .++++++++@%&&&@$++++++++$@   ",
"   .++++++++@@@@@@$++++++++$@   ",
"   .+++++++++$$@$$$++++++++$@   ",
"   .+++++++++++@$++@@@@@@++$@   ",
"   .+++++++++++@$++@+++*@$+$@   ",
"   .+++++++++++@@@@@+**=@$+$@   ",
"   .+++++++++++@$$$@+**=@$+$@   ",
"   .+++++++++++@$++@*===@$+$@   ",
"   .+++++++++++@$++@@@@@@$+$@   ",
"   .+++++++++++@$+++$$$$$$+$@   ",
"   .+++++++++++@$++@@@@@@++$@   ",
"   .+++++++++++@$++@+++-@$+$@   ",
"   .+++++++++++@@@@@+--;@$+$@   ",
"   .++++++++++++$$$@+--;@$+$@   ",
"   .+++++++++++++++@-;;;@$+$@   ",
"   .+++++++++++++++@@@@@@$+$@   ",
"   .++++++++++++++++$$$$$$+$@   ",
"   .$$$$$$$$$$$$$$$$$$$$$$$$@   ",
"   @@@@@@@@@@@@@@@@@@@@@@@@@@   "};
