/* XPM */
static char * merge_16x16_xpm[] = {
"16 16 44 1",
" 	c None",
".	c #7AB587",
"+	c #81B180",
"@	c #619365",
"#	c #56895B",
"$	c #4B7E51",
"%	c #44754C",
"&	c #356043",
"*	c #E6F2E6",
"=	c #C6E3C3",
"-	c #98CE8D",
";	c #85C37A",
">	c #69AF64",
",	c #3E6D46",
"'	c #E1F0E0",
")	c #D2E7D1",
"!	c #A5D19C",
"~	c #87C57B",
"{	c #70B66B",
"]	c #539158",
"^	c #447E56",
"/	c #3F7356",
"(	c #3A6656",
"_	c #FFFFFF",
":	c #EEF7EB",
"<	c #DDF1D8",
"[	c #D7EAD6",
"}	c #B9DBB5",
"|	c #8CC680",
"1	c #7DBD79",
"2	c #74BE7A",
"3	c #53A362",
"4	c #3C6A52",
"5	c #DFF0DD",
"6	c #DCEDDB",
"7	c #C6E2C5",
"8	c #91C989",
"9	c #90C68D",
"0	c #3A634D",
"a	c #E5F2E4",
"b	c #D3E8D2",
"c	c #97CB90",
"d	c #DEEEDD",
"e	c #D5E7D7",
"    .+@#$%&     ",
"    .*=-;>,     ",
" ....')!~{]^/(  ",
"  ._:<[}|1234   ",
"   ._5678930    ",
"    ._abc30     ",
"     ._d30      ",
"      .e0       ",
"      .e0       ",
"     ._d30      ",
"    ._abc30     ",
"   ._5678930    ",
"  ._:<[}|1234   ",
" ....')!~{]^/(  ",
"    .*=-;>,     ",
"    .+@#$%&     "};
