/* XPM */
static char * module_status_16x16_xpm[] = {
"16 16 82 1",
" 	c None",
".	c #979797",
"+	c #202020",
"@	c #000000",
"#	c #9F9F9F",
"$	c #DFDFDF",
"%	c #BFBFBF",
"&	c #7AB587",
"*	c #DBDBDB",
"=	c #505050",
"-	c #3C3C3C",
";	c #606060",
">	c #0C0C0C",
",	c #ABABAB",
"'	c #FFFFFF",
")	c #F7FBF8",
"!	c #ECF5EE",
"~	c #E2EFE4",
"{	c #2C2C2C",
"]	c #FEFEFE",
"^	c #F2F8F3",
"/	c #E7F2E9",
"(	c #DCECDF",
"_	c #292929",
":	c #878787",
"<	c #FAFCFA",
"[	c #EEF6EF",
"}	c #E2EFE5",
"|	c #D7E9DA",
"1	c #323232",
"2	c #101010",
"3	c #A7A7A7",
"4	c #F6FAF7",
"5	c #EAF4EC",
"6	c #DFEDE1",
"7	c #D3E7D7",
"8	c #232323",
"9	c #EBEBEB",
"0	c #FBFBFB",
"a	c #F4F9F5",
"b	c #E8F2EA",
"c	c #D0E6D4",
"d	c #C4DFC9",
"e	c #747474",
"f	c #E3E3E3",
"g	c #F3F8F4",
"h	c #E6F2E9",
"i	c #DAEBDD",
"j	c #CEE5D2",
"k	c #C2DEC7",
"l	c #B6D7BC",
"m	c #3A6656",
"n	c #E6F1E8",
"o	c #CDE4D2",
"p	c #C1DEC6",
"q	c #B5D7BB",
"r	c #A8D0B0",
"s	c #6EB17B",
"t	c #A9D1B1",
"u	c #9DCAA6",
"v	c #91C49B",
"w	c #85BE90",
"x	c #79B785",
"y	c #B8D9BE",
"z	c #ACD2B3",
"A	c #A0CCA8",
"B	c #95C69E",
"C	c #89C094",
"D	c #7FBA8A",
"E	c #75B581",
"F	c #C7E1CC",
"G	c #BBDBC1",
"H	c #B0D5B7",
"I	c #A5CFAD",
"J	c #9AC9A3",
"K	c #90C39A",
"L	c #87BE91",
"M	c #CCE3D0",
"N	c #C0DDC6",
"O	c #ABD2B2",
"P	c #A1CDA9",
"Q	c #98C8A1",
"        .+++@   ",
"       #@$%%%@  ",
"  &&&&.@*=-;>,@ ",
" &')!~{'#@#'++'@",
"&']^/(_'*#*:>,'@",
"&'<[}|1''':23''@",
"&'45678'''9$0''@",
"&'ab(cd@9'e+f0@ ",
"&'ghijkl@%%%%@m ",
"&'^niopqr@@@@sm ",
"&'ghijkltuvwxsm ",
"&'ab(cdyzABCDEm ",
"&'4567FGHIJKLDm ",
"&&<[}|MNlOPQKmm ",
" mmmmmmmmmmmmm  ",
"                "};
