/* XPM */
static char * module_add_recursive_16x16_xpm[] = {
"16 16 67 1",
" 	c None",
".	c #FFF372",
"+	c #7AB587",
"@	c #FFFFFF",
"#	c #F7FBF8",
"$	c #ECF5EE",
"%	c #E2EFE4",
"&	c #D7EADB",
"*	c #FEFEFE",
"=	c #F2F8F3",
"-	c #E7F2E9",
";	c #DCECDF",
">	c #D1E6D5",
",	c #FAFCFA",
"'	c #EEF6EF",
")	c #E2EFE5",
"!	c #D7E9DA",
"~	c #CCE3D0",
"{	c #C0DDC6",
"]	c #B6D7BC",
"^	c #ABD2B2",
"/	c #3A6656",
"(	c #F6FAF7",
"_	c #EAF4EC",
":	c #DFEDE1",
"<	c #D3E7D7",
"[	c #C7E1CC",
"}	c #BBDBC1",
"|	c #B0D5B7",
"1	c #9AC9A3",
"2	c #87BE91",
"3	c #F4F9F5",
"4	c #E8F2EA",
"5	c #D0E6D4",
"6	c #C4DFC9",
"7	c #B8D9BE",
"8	c #A0CCA8",
"9	c #95C69E",
"0	c #7FBA8A",
"a	c #75B581",
"b	c #F3F8F4",
"c	c #E6F2E9",
"d	c #DAEBDD",
"e	c #CEE5D2",
"f	c #C2DEC7",
"g	c #A9D1B1",
"h	c #9DCAA6",
"i	c #91C49B",
"j	c #79B785",
"k	c #6EB17B",
"l	c #E6F1E8",
"m	c #CDE4D2",
"n	c #C1DEC6",
"o	c #B5D7BB",
"p	c #A8D0B0",
"q	c #9CCAA5",
"r	c #90C39A",
"s	c #84BD8E",
"t	c #77B683",
"u	c #6BB078",
"v	c #D93333",
"w	c #85BE90",
"x	c #ACD2B3",
"y	c #89C094",
"z	c #A5CFAD",
"A	c #A1CDA9",
"B	c #98C8A1",
"           .    ",
"        .  .  . ",
"  +++++  . . .  ",
" +@#$%&+  ...   ",
"+@*=-;>.........",
"+@,')!~{]^...// ",
"+@(_:<[}|.1.2./ ",
"+@34;567.89.0a. ",
"+@bcdef]ghi.jk/ ",
"+@=ldmnopqrstu/ ",
"+@vvvef]ghiwjk/ ",
"+@vvv567x89y0a/ ",
"+@vvv<[}|z1r20/ ",
"++,')!~{]^ABr// ",
" /////////////  ",
"                "};
