/* XPM */
static char *module_autoupdate_16x16[]={
"16 16 171 2",
"Qt c None",
"#. c #0e1114",
"#z c #212a32",
"#D c #325cd1",
".W c #3a474f",
"#A c #3b4d5b",
"#x c #444547",
"#M c #4f606c",
"#o c #5496ef",
"#t c #5677d5",
"#y c #575757",
"#k c #5a6c76",
"#L c #5d7485",
"#C c #5f99ec",
"#R c #64a2f1",
"#B c #6a97cb",
"#O c #6f8fad",
"#5 c #72a4e4",
".9 c #73878f",
"#E c #7485b1",
".V c #74878f",
"#N c #7593ac",
"ae c #7689b1",
"#H c #76aff3",
"#Q c #7ab2f4",
"#b c #7babe8",
"#S c #7e87a9",
"#P c #7eabdb",
"#l c #82a3bd",
"#W c #82b3ec",
".Y c #8398c0",
"#I c #83b9f5",
"#p c #848fb3",
"## c #84a4bd",
"#6 c #8989a1",
"au c #8a8dd5",
"ao c #8aa3c6",
"ax c #8b8ba3",
"#4 c #8bbff6",
"#F c #8c8ca4",
"#u c #8cbaf2",
"#n c #8cc0f6",
"aw c #8e9cb5",
"ap c #8f8fa3",
"aF c #9090a7",
"aH c #9191a5",
"aG c #9191a8",
".J c #91add2",
"#w c #92c4f8",
".3 c #93c0f1",
"#J c #93c5f7",
"#v c #94c5f8",
"#X c #94c6f7",
"#f c #94c6f8",
"#j c #95b3c5",
"aL c #9696ab",
"ay c #9797aa",
".u c #979cdb",
"ad c #99c9f8",
"aE c #9a9cb1",
"#T c #9f9fb0",
"#K c #a1d0f9",
"a. c #a2b3d2",
"#a c #a2cff8",
"#m c #a2d0f8",
"a# c #a3d1f9",
"#c c #a4a4b6",
"ai c #a4bcd8",
"aM c #a6a6b5",
"aD c #a7a9bc",
".x c #a7b6ce",
"#q c #a8a8b7",
"aC c #a8a9bb",
"#g c #a8d5fa",
"#Y c #a9d5fa",
".L c #aaaab9",
"ar c #aab7ca",
"#s c #abbbdb",
".O c #acbfdd",
".X c #add8f9",
".B c #afc8e4",
"aK c #b0b0bd",
"aB c #b0b0c0",
"#7 c #b2b2bc",
"#h c #b2dcfb",
"az c #b3b3bf",
".Z c #b4b4c3",
"#3 c #b4defb",
"aN c #b5b5be",
".k c #b6c1d9",
".4 c #b6e0fc",
".o c #b8b8c4",
"#i c #b9e2fc",
"#Z c #bae2fc",
"#d c #bbbbc3",
"aa c #bbe3fc",
"an c #bde5fd",
".z c #bebec8",
".K c #bebecb",
"#G c #bec8dd",
"ag c #bfbfc9",
"aA c #c0c0cd",
"#e c #c0cadf",
"aJ c #c1c1c8",
"#2 c #c1e8fd",
".l c #c3c8d9",
".5 c #c3e9fd",
".P c #c4eafd",
"aq c #c5c5ce",
"#0 c #c5eafe",
".r c #c7d0df",
"#1 c #c7ecfe",
"av c #c8e0ee",
".w c #c8e1f2",
"ac c #c8ecfe",
".I c #c8edfe",
".y c #c9c9d4",
"af c #cbcbcd",
".j c #cbcfdf",
".6 c #cbeefe",
"aO c #ccccce",
".8 c #cdf0ff",
"ab c #cef0fe",
".7 c #cef0ff",
".0 c #d0d0d1",
".Q c #d0f1ff",
".e c #d1d1d5",
".g c #d1d1d8",
".m c #d1d1da",
".c c #d1d1db",
"as c #d1e5f1",
".A c #d2d2d8",
"aI c #d3d3d3",
"ah c #d3d3dc",
"am c #d3f1ff",
".d c #d4d4da",
".n c #d5d5dd",
".H c #d5f2ff",
"#U c #d6d6d8",
"#r c #d6d6de",
".U c #d6f2ff",
".f c #d8d8d8",
"#V c #d8d8e0",
".R c #d8f3ff",
".a c #d9d9db",
".b c #d9d9de",
".F c #d9e8f9",
".C c #d9f3ff",
".s c #dae9f6",
"aj c #daf3ff",
"#8 c #dbdbda",
".T c #dbf4ff",
".1 c #dcdcdd",
".p c #dcdce0",
".S c #dcf5ff",
"#9 c #dddde4",
".# c #dfdfdd",
".M c #e0e0de",
".i c #e0e0e6",
".G c #e0f5ff",
".2 c #e2e2e8",
".D c #e3f6ff",
"al c #e3f7ff",
".v c #e7f8ff",
".E c #e8f8ff",
".q c #e9e9ed",
".h c #e9e9ee",
".N c #eaeaee",
"ak c #edf9ff",
"at c #effaff",
".t c #f5fcff",
"QtQtQtQt.#.a.b.c.d.e.fQtQtQtQtQt",
"QtQtQt.g.h.i.j.k.l.m.n.oQtQtQtQt",
"QtQt.p.q.r.s.t.u.v.w.x.y.zQtQtQt",
"Qt.A.q.B.C.D.E.F.G.H.I.J.K.LQtQt",
".M.N.O.P.Q.R.S.T.U.V.W.X.Y.Z.0Qt",
".1.2.3.4.5.6.7.8.9#.###a#b#c#dQt",
".p#e#f#g#h#i#j#k#.#l#m#n#o#p#qQt",
"#r#s#t#u#v#w#x#y#z#A#B#C#D#E#FQt",
".b#G#H#I#J#K#L#M#N#O#P#Q#R#S#TQt",
"#U#V#W#X#Y#Z#0#1#2#3#K#4#5#6#7Qt",
"#8#9a.a#aaab.R.T.Hac#hadae#FafQt",
"Qtagahai#1aj.Eakalamanao#6apQtQt",
"QtQtaq.yarasatau.EavawaxayQtQtQt",
"QtQtQtazaAaBaCaDaEaFaGaHQtQtQtQt",
"QtQtQtQtaIaJaKaLaMaNaOQtQtQtQtQt",
"QtQtQtQtQtQtQtQtQtQtQtQtQtQtQtQt"};
