/* XPM */
static char * QueryUpdate16x16_xpm[] = {
"16 16 9 1",
" 	c None",
".	c #000000",
"+	c #4040C0",
"@	c #6060C0",
"#	c #FFFFFF",
"$	c #0060C0",
"%	c #00A0C0",
"&	c #00FFFF",
"*	c #808080",
"          ...   ",
"         .....  ",
"   +@@@@..   .. ",
"  +@@@##..   .. ",
" ++++++$#@@ ..  ",
"     +$$%&@..   ",
"      $%%%...   ",
"       $&%&%    ",
"       $&&...   ",
"    .***&&...*. ",
"     .&&&&&&&.  ",
"      .&&&&&.   ",
"       .&&&.    ",
"        .&.     ",
"         .      ",
"                "};
