/* XPM */
static char * quit_16x16_xpm[] = {
"16 16 46 1",
" 	c None",
".	c #7AB587",
"+	c #ECF4ED",
"@	c #E2EEE4",
"#	c #D8E9DC",
"$	c #CFE4D4",
"%	c #C7E0CC",
"&	c #FCFDFC",
"*	c #F1F7F2",
"=	c #E6F1E8",
"-	c #DBEBDE",
";	c #D1E5D5",
">	c #BEDBC4",
",	c #B6D6BD",
"'	c #B0D3B7",
")	c #3A6656",
"!	c #FFFFFF",
"~	c #F8FBF8",
"{	c #ECF4EE",
"]	c #E1EEE4",
"^	c #D6E8DA",
"/	c #000000",
"(	c #C0DCC6",
"_	c #ADD1B5",
":	c #A5CDAE",
"<	c #9EC9A7",
"[	c #F5F9F6",
"}	c #E9F3EB",
"|	c #DDECE0",
"1	c #D2E5D6",
"2	c #BBD9C1",
"3	c #9CC8A5",
"4	c #95C49F",
"5	c #F3F8F4",
"6	c #E7F1E9",
"7	c #B7D7BE",
"8	c #ABD0B3",
"9	c #A0CAA9",
"0	c #8BBE96",
"a	c #F2F8F4",
"b	c #E6F1E9",
"c	c #DAEADE",
"d	c #CEE4D3",
"e	c #AACFB2",
"f	c #92C29C",
"g	c #86BB91",
"                ",
"     .....      ",
"   ..+@#$%..    ",
"  .&*=-;%>,')   ",
" !.~{]^/(,_:)<  ",
" .![}|1/2':34)  ",
" .!56-$/78940)  ",
" .!abcd/,e<fg)  ",
" .!56-$/78940)  ",
" .![}|1/2':34)  ",
" &.~{]^/(,_:)<  ",
"  .&*=-;%>,')   ",
"   ))+@#$%))    ",
"     )))))      ",
"                ",
"                "};
