/* XPM */
static char * refresh_16x16_xpm[] = {
"16 16 60 1",
" 	c None",
".	c #7AB587",
"+	c #FFFFFF",
"@	c #F5F9F6",
"#	c #EBF4ED",
"$	c #E2EFE4",
"%	c #D9EADC",
"&	c #D0E6D4",
"*	c #C9E2CD",
"=	c #C2DEC7",
"-	c #F9FBF9",
";	c #EEF6F0",
">	c #E4F0E6",
",	c #DAEBDD",
"'	c #007524",
")	c #C7E1CC",
"!	c #BFDDC5",
"~	c #B8D9BE",
"{	c #ADD3B4",
"]	c #F3F9F4",
"^	c #E8F3EA",
"/	c #DDEDE0",
"(	c #00FF00",
"_	c #B6D8BC",
":	c #AED3B5",
"<	c #3A634D",
"[	c #FAFCFB",
"}	c #EFF6F0",
"|	c #A5CEAD",
"1	c #9DCAA5",
"2	c #96C79F",
"3	c #F7FAF7",
"4	c #C8E1CD",
"5	c #93C59D",
"6	c #8CC196",
"7	c #F4F9F5",
"8	c #C4DFC9",
"9	c #A1CDAA",
"0	c #82BC8D",
"a	c #F3F8F4",
"b	c #E7F2E9",
"c	c #CEE5D3",
"d	c #AAD1B1",
"e	c #9ECBA6",
"f	c #86BE91",
"g	c #7BB886",
"h	c #F2F8F3",
"i	c #E6F1E8",
"j	c #CEE4D2",
"k	c #A9D1B0",
"l	c #78B784",
"m	c #DAEBDE",
"n	c #DCECDF",
"o	c #DFEEE2",
"p	c #D4E8D7",
"q	c #A7D0AF",
"r	c #E3F0E6",
"s	c #D8EADB",
"t	c #CDE4D1",
"u	c #D3E7D7",
" ...........    ",
" .++@#$%&*=..   ",
" .+-;>,')!~.{.  ",
" .+]^/(''_:<<<< ",
" .[}('''''|12.< ",
" .3#'(4''(156.< ",
" .7'(&8'(9260.< ",
" .ab'c=_de'fg.< ",
" .hi,j('k1('l.< ",
" .abm(''d('fg.< ",
" .7^n'''''(60.< ",
" .3#op''(q156.< ",
" .[}rst'~:|12.< ",
" .+]^/u*!_:q9.< ",
" .............< ",
" <<<<<<<<<<<<<< "};
