/* XPM */
static char * stop_16x16_xpm[] = {
"16 16 132 2",
"  	c None",
". 	c #630000",
"+ 	c #EA5A4D",
"@ 	c #DC2903",
"# 	c #E22A00",
"$ 	c #E62B00",
"% 	c #E32A00",
"& 	c #DE2901",
"* 	c #E0442E",
"= 	c #D02301",
"- 	c #C62707",
"; 	c #D02804",
"> 	c #DD2801",
", 	c #DE2800",
"' 	c #DD2800",
") 	c #D32904",
"! 	c #C82908",
"~ 	c #CC2705",
"{ 	c #D22300",
"] 	c #D83922",
"^ 	c #C02407",
"/ 	c #ECD5D1",
"( 	c #EDD1CC",
"_ 	c #CA3214",
": 	c #D62400",
"< 	c #CB2504",
"[ 	c #B32910",
"} 	c #DCAFA8",
"| 	c #F6E8E6",
"1 	c #D03516",
"2 	c #CA2205",
"3 	c #690200",
"4 	c #C61F03",
"5 	c #C12104",
"6 	c #ECD1CC",
"7 	c #F5F2F2",
"8 	c #EACAC5",
"9 	c #BE3119",
"0 	c #AF2711",
"a 	c #D7AAA3",
"b 	c #F8F6F6",
"c 	c #F9F0EE",
"d 	c #D15038",
"e 	c #CA270B",
"f 	c #C41D00",
"g 	c #DD4A3C",
"h 	c #C01B00",
"i 	c #C31D01",
"j 	c #BC2B14",
"k 	c #E8C9C5",
"l 	c #E8D0CD",
"m 	c #DBB8B3",
"n 	c #F8F4F4",
"o 	c #F8EDEC",
"p 	c #D67B6B",
"q 	c #CE452E",
"r 	c #C42207",
"s 	c #BD1A00",
"t 	c #CC3626",
"u 	c #BB1900",
"v 	c #BC1A00",
"w 	c #B02C19",
"x 	c #E7D0CD",
"y 	c #F2EEEE",
"z 	c #F6F2F2",
"A 	c #F9F5F5",
"B 	c #CD6E60",
"C 	c #C84632",
"D 	c #BF230B",
"E 	c #B51700",
"F 	c #BD2414",
"G 	c #B31500",
"H 	c #B31600",
"I 	c #AD1804",
"J 	c #9E2011",
"K 	c #D9B7B3",
"L 	c #EAD7D4",
"M 	c #BB4E40",
"N 	c #B7220E",
"O 	c #B41600",
"P 	c #AE1300",
"Q 	c #AC1404",
"R 	c #AA1100",
"S 	c #A51504",
"T 	c #971C10",
"U 	c #D0A7A3",
"V 	c #F7F4F4",
"W 	c #E8D6D4",
"X 	c #E9D2D0",
"Y 	c #A92617",
"Z 	c #AC1200",
"` 	c #AB1100",
" .	c #A71000",
"..	c #9F0D00",
"+.	c #A20E01",
"@.	c #971508",
"#.	c #D2ABA8",
"$.	c #F6ECEC",
"%.	c #BF6860",
"&.	c #AF4840",
"*.	c #E7D1D0",
"=.	c #E6CAC7",
"-.	c #A72114",
";.	c #A20F01",
">.	c #990B01",
",.	c #930E05",
"'.	c #F2E7E6",
").	c #F7EFEE",
"!.	c #C0716B",
"~.	c #AD3A32",
"{.	c #9F180E",
"].	c #9B1F17",
"^.	c #E4C9C7",
"/.	c #FCFCFC",
"(.	c #AD4039",
"_.	c #9A0E04",
":.	c #900700",
"<.	c #8F0600",
"[.	c #981C16",
"}.	c #A53D38",
"|.	c #A5332E",
"1.	c #96110B",
"2.	c #920700",
"3.	c #981A14",
"4.	c #A73E39",
"5.	c #890400",
"6.	c #8A0501",
"7.	c #8E0E0B",
"8.	c #8C0A07",
"9.	c #890300",
"0.	c #8C0804",
"a.	c #810000",
"          . . . . . .           ",
"      . . + + + + + + . .       ",
"    . + + @ # $ $ % & + * .     ",
"  . + = - ; > , ' ) ! ~ { ] .   ",
"  . + ^ / ( _ : < [ } | 1 2 3   ",
". + 4 5 6 7 8 9 0 a b c d e f . ",
". g h i j k 7 l m n o p q r s . ",
". t u v v w x y z A B C D u E . ",
". F G H I J K z 7 L M N O G P . ",
". Q R S T U V A W 7 X Y Z `  .. ",
". ..+.@.#.b $.%.&.*.V =.-.;.... ",
"  . >.,.'.).!.~.{.].^./.(._..   ",
"  . :.<.[.}.|.1.2.2.3.4.3.:..   ",
"    . 5.6.7.8.9.9.9.6.0.5..     ",
"      . . a.a.a.a.a.a.. .       ",
"          . . . . . .           "};
