/* XPM */
static char * t_16x16_xpm[] = {
"16 16 21 1",
" 	c #FFFFFF",
".	c #959DC6",
"+	c #5460A3",
"@	c #7781B6",
"#	c #4D5A9F",
"$	c #505DA1",
"%	c #7580B5",
"&	c #515EA1",
"*	c #A3AACD",
"=	c #D3D6E7",
"-	c #5D69A8",
";	c #C2C7DE",
">	c #D4D7E8",
",	c #FEFEFF",
"'	c #FCFCFD",
")	c #D6D9E9",
"!	c #FEFEFE",
"~	c #5C68A7",
"{	c #EBECF4",
"]	c #717CB3",
"^	c #F7F7FA",
"                ",
"                ",
"                ",
"                ",
"    .+@#$%&*    ",
"    .= #- ;*    ",
"    >, #- ')    ",
"       #-       ",
"       #-       ",
"       #-       ",
"      !#~       ",
"     {]##%^     ",
"                ",
"                ",
"                ",
"                "};
