/* XPM */
static char * Tag16x16_xpm[] = {
"16 16 12 1",
" 	c None",
".	c #404040",
"+	c #404000",
"@	c #400040",
"#	c #000000",
"$	c #FFFF80",
"%	c #FFFFFF",
"&	c #FFFF00",
"*	c #404019",
"=	c #FFFF40",
"-	c #FFFF2B",
";	c #303030",
"                ",
"    ....+       ",
"@@ #.$%&..      ",
"@@#.&%&%&..     ",
" #.@@@%&%&.*    ",
" .$%@@&%&%&.+   ",
" .%&%&%&%&%&.+  ",
" .&%&%&%&%&%&.. ",
" @.&%&%&%&%&%$.#",
"  @.&%&%&%&%=%.#",
"   @.-%=%=%=%.; ",
"    @.$%$%$%.;  ",
"     @.$%$%.;   ",
"      @.$%.;    ",
"       @..;     ",
"        @#      "};
