/* XPM */
static char * Tag32x32_xpm[] = {
"32 32 8 1",
" 	c None",
".	c #000000",
"+	c #808080",
"@	c #C0C0C0",
"#	c #FFFF00",
"$	c #FFFFFF",
"%	c #800000",
"&	c #FF0000",
"    ...........+                ",
"   .@@@@@@@@@@@@.               ",
"  .@#$#$#$#$#$#$@.              ",
" .@#@..@$#$#$#$#$@.             ",
"%&&&&&&.#$#$#$#$#$@.            ",
"%%%%%%%.$#$#$#$#$#$@.           ",
" .@$@..@#$#$#$#$#$#$@.          ",
" .@#$#$#$#$#$#$#$#$#$@.         ",
" .@$#$#$#$#$#$#$#$#$#$@.        ",
" .@#$#$#$#$#$#$#$#$#$#$@.       ",
" .@$#$#$#$#$#$#$#$#$#$#$@.      ",
" .@#$#$#$#$#$#$#$#$#$#$#$@.     ",
" .@$#$#$#$#$#$#$#$#$#$#$#$@.    ",
" .@#$#$#$#$#$#$#$#$#$#$#$#$@.   ",
" .@$#$#$#$#$#$#$#$#$#$#$#$#$@.  ",
" +.@$#$#$#$#$#$#$#$#$#$#$#$#$@. ",
"  +.@$#$#$#$#$#$#$#$#$#$#$#$#$@.",
"   +.@$#$#$#$#$#$#$#$#$#$#$#$#@.",
"    +.@$#$#$#$#$#$#$#$#$#$#$#$@.",
"     +.@$#$#$#$#$#$#$#$#$#$#$@.+",
"      +.@$#$#$#$#$#$#$#$#$#$@.+ ",
"       +.@$#$#$#$#$#$#$#$#$@.+  ",
"        +.@$#$#$#$#$#$#$#$@.+   ",
"         +.@$#$#$#$#$#$#$@.+    ",
"          +.@$#$#$#$#$#$@.+     ",
"           +.@$#$#$#$#$@.+      ",
"            +.@$#$#$#$@.+       ",
"             +.@$#$#$@.+        ",
"              +.@$#$@.+         ",
"               +.@@@.+          ",
"                +...+           ",
"                 +++            "};
