/* XPM */
static char *Tag30x16[]={
"30 16 12 1",
". c None",
"c c #000000",
"j c #303030",
"b c #400040",
"a c #404000",
"g c #404019",
"# c #404040",
"f c #ffff00",
"i c #ffff2b",
"h c #ffff40",
"d c #ffff80",
"e c #ffffff",
"..............................",
"................####a.........",
"............bb.c#def##........",
"............bbc#fefef##.......",
".............c#bbbefef#g......",
".............#debbfefef#a.....",
".............#efefefefef#a....",
".............#fefefefefef##...",
".............b#fefefefefed#c..",
"..............b#fefefefehe#c..",
"...............b#iehehehe#j...",
"................b#dedede#j....",
".................b#dede#j.....",
"..................b#de#j......",
"...................b##j.......",
"....................bc........"};
