/* XPM */
static char *TagTag16x16[]={
"30 16 12 1",
". c None",
"# c #000000",
"j c #303030",
"c c #400040",
"b c #404000",
"g c #404019",
"a c #404040",
"f c #ffff00",
"i c #ffff2b",
"h c #ffff40",
"d c #ffff80",
"e c #ffffff",
"..............................",
"###########.....aaaab.........",
"###########.cc.#adefaa........",
"###########.cc#afefefaa.......",
"....###......#acccefefag......",
"....###......adeccfefefab.....",
"....###......aefefefefefab....",
"....###......afefefefefefaa...",
"....###......cafefefefefeda#..",
"....###.......cafefefefehea#..",
"....###........caieheheheaj...",
"....###.........cadededeaj....",
"....###..........cadedeaj.....",
"....###...........cadeaj......",
"....###............caaj.......",
"....###.............c#........"};
