/* XPM */
static char * u_xpm[] = {
"16 16 9 1",
" 	c #FFFFFF",
".	c #6F4FCE",
"+	c #3C10BD",
"@	c #B19FE5",
"#	c #947CDB",
"$	c #A996E2",
"%	c #5934C7",
"&	c #471DC1",
"*	c #542DC5",
"                ",
"                ",
"                ",
"   .++    .++   ",
"   .++    .++   ",
"   .++    .++   ",
"   .++    .++   ",
"   .++    .++   ",
"   .++    .++   ",
"   .++    .++   ",
"   .++    .++   ",
"   @#+$$$$%&#   ",
"     ++++++*    ",
"                ",
"                ",
"                "};
