/* XPM */
static char * update_recursive_16x16_xpm[] = {
"16 16 29 1",
" 	c None",
".	c #7AB587",
"+	c #D5E7D7",
"@	c #3A634D",
"#	c #FFFFFF",
"$	c #DEEEDD",
"%	c #53A362",
"&	c #E5F2E4",
"*	c #D3E8D2",
"=	c #97CB90",
"-	c #DFF0DD",
";	c #DCEDDB",
">	c #C6E2C5",
",	c #91C989",
"'	c #90C68D",
")	c #DDF1D8",
"!	c #D7EAD6",
"~	c #B9DBB5",
"{	c #8CC680",
"]	c #7DBD79",
"^	c #3F7356",
"/	c #3A6656",
"(	c #D2E7D1",
"_	c #A5D19C",
":	c #87C57B",
"<	c #C6E3C3",
"[	c #98CE8D",
"}	c #85C37A",
"|	c #D93333",
"       .        ",
"      .+@       ",
"     .#$%@      ",
"    .#&*=%@     ",
"   .#-;>,'%@    ",
"  ...)!~{]%^/   ",
"     .(_:%      ",
"     .<[}^      ",
"     .<[}^      ",
"     .(_:%      ",
"  ...)!~{]%^/   ",
"   .#-;>,'%@    ",
"    .#&*=%@     ",
"  |||.#$%@      ",
"  ||| .+@       ",
"  |||  .        "};
