/* XPM */
static char * visoel_xpm[] = {
"64 64 413 2",
"  	c None",
". 	c #040480",
"+ 	c #060681",
"@ 	c #0A0A83",
"# 	c #8383C0",
"$ 	c #0F0F86",
"% 	c #8181BF",
"& 	c #070781",
"* 	c #03037C",
"= 	c #03037D",
"- 	c #8080BB",
"; 	c #8080BC",
"> 	c #04047F",
", 	c #8181BE",
"' 	c #050580",
") 	c #03037E",
"! 	c #274562",
"~ 	c #21405C",
"{ 	c #1E3D5F",
"] 	c #1E3B62",
"^ 	c #1C3861",
"/ 	c #414994",
"( 	c #4E4EA4",
"_ 	c #19326A",
": 	c #132B63",
"< 	c #122A67",
"[ 	c #293780",
"} 	c #4E4EA2",
"| 	c #25337F",
"1 	c #0A1F6A",
"2 	c #081B69",
"3 	c #07196D",
"4 	c #3E4298",
"5 	c #494AA1",
"6 	c #020F6D",
"7 	c #020D6E",
"8 	c #030A6F",
"9 	c #030772",
"0 	c #050773",
"a 	c #343495",
"b 	c #4F4FA6",
"c 	c #373798",
"d 	c #030374",
"e 	c #030377",
"f 	c #020277",
"g 	c #03037A",
"h 	c #03037B",
"i 	c #2A2A92",
"j 	c #8585BF",
"k 	c #D7D7E8",
"l 	c #A6A6CE",
"m 	c #5E5EAD",
"n 	c #111183",
"o 	c #030379",
"p 	c #020275",
"q 	c #313193",
"r 	c #383996",
"s 	c #02086E",
"t 	c #020B6D",
"u 	c #020F6F",
"v 	c #03116E",
"w 	c #363B91",
"x 	c #0A1C6C",
"y 	c #091E69",
"z 	c #0C206B",
"A 	c #0D2369",
"B 	c #0F2666",
"C 	c #122968",
"D 	c #142E61",
"E 	c #183364",
"F 	c #1E3867",
"G 	c #81F60C",
"H 	c #77EE06",
"I 	c #6FE308",
"J 	c #69D80D",
"K 	c #61CC11",
"L 	c #B8E797",
"M 	c #FDFEFD",
"N 	c #77BF56",
"O 	c #46A120",
"P 	c #3E9921",
"Q 	c #AED0A7",
"R 	c #FDFDFD",
"S 	c #4E9151",
"T 	c #206B32",
"U 	c #1A6234",
"V 	c #125738",
"W 	c #C8D7D3",
"X 	c #ECF0F0",
"Y 	c #003743",
"Z 	c #002B47",
"` 	c #002149",
" .	c #00154D",
"..	c #606993",
"+.	c #ECECF3",
"@.	c #FAFAFB",
"#.	c #EEEEF5",
"$.	c #595999",
"%.	c #000063",
"&.	c #000065",
"*.	c #00006A",
"=.	c #00006D",
"-.	c #373790",
";.	c #E2E2EF",
">.	c #FAFAFC",
",.	c #ECECF5",
"'.	c #E6E6F1",
").	c #FCFCFD",
"!.	c #B8B8D8",
"~.	c #11117B",
"{.	c #00006B",
"].	c #000069",
"^.	c #000062",
"/.	c #9999BF",
"(.	c #FEFEFE",
"_.	c #B1B7C9",
":.	c #001B4B",
"<.	c #002548",
"[.	c #003144",
"}.	c #013B40",
"|.	c #AFC3C1",
"1.	c #1B6039",
"2.	c #1D6931",
"3.	c #25742E",
"4.	c #2B7D2A",
"5.	c #348B26",
"6.	c #3B9324",
"7.	c #439F20",
"8.	c #4CAB1D",
"9.	c #51B617",
"0.	c #5DC21B",
"a.	c #86FF08",
"b.	c #7CF702",
"c.	c #74EB05",
"d.	c #6DE009",
"e.	c #65D40D",
"f.	c #7FD540",
"g.	c #B5DF9F",
"h.	c #46A71C",
"i.	c #46A124",
"j.	c #ECF5E8",
"k.	c #D1E3D1",
"l.	c #2A7C2B",
"m.	c #22702E",
"n.	c #1B6631",
"o.	c #125A36",
"p.	c #C9D8D2",
"q.	c #003940",
"r.	c #002D44",
"s.	c #002348",
"t.	c #00164C",
"u.	c #D2D4E0",
"v.	c #EBEBF3",
"w.	c #393A7D",
"x.	c #8687B1",
"y.	c #19196D",
"z.	c #04046F",
"A.	c #CDCDE3",
"B.	c #F6F6FA",
"C.	c #6767AF",
"D.	c #8E8EC4",
"E.	c #282890",
"F.	c #A0A0CD",
"G.	c #8787BC",
"H.	c #000068",
"I.	c #000064",
"J.	c #000061",
"K.	c #52538D",
"L.	c #3F437D",
"M.	c #2B3B6B",
"N.	c #001C4A",
"O.	c #002747",
"P.	c #003143",
"Q.	c #013F3F",
"R.	c #AFC4C0",
"S.	c #1C6336",
"T.	c #206E2E",
"U.	c #26772C",
"V.	c #2D8128",
"W.	c #379024",
"X.	c #4CB018",
"Y.	c #54BC14",
"Z.	c #60C818",
"`.	c #86FE08",
" +	c #64D40D",
".+	c #5ECA12",
"++	c #E0F3D3",
"@+	c #ECF6E6",
"#+	c #4BA920",
"$+	c #72B858",
"%+	c #82B47D",
"&+	c #2A7C2A",
"*+	c #216F2E",
"=+	c #C8D8D2",
"-+	c #EBF0F0",
";+	c #002248",
">+	c #00174C",
",+	c #BFC3D2",
"'+	c #F7F7FA",
")+	c #7071A0",
"!+	c #141567",
"~+	c #00005D",
"{+	c #33338B",
"]+	c #A2A2CF",
"^+	c #030378",
"/+	c #8181BD",
"(+	c #0D0D7C",
"_+	c #EAEAF2",
":+	c #E0E0EE",
"<+	c #000060",
"[+	c #6B6B9E",
"}+	c #5B5F8F",
"|+	c #384575",
"1+	c #00194B",
"2+	c #002846",
"3+	c #003243",
"4+	c #013E3F",
"5+	c #AEC4C0",
"6+	c #1C6437",
"7+	c #26762C",
"8+	c #389123",
"9+	c #3D9921",
"0+	c #45A51C",
"a+	c #4DB218",
"b+	c #54BC15",
"c+	c #61C917",
"d+	c #C3FE85",
"e+	c #BEFB81",
"f+	c #BAF583",
"g+	c #B6EF85",
"h+	c #B2E987",
"i+	c #AFE489",
"j+	c #D2EEBF",
"k+	c #BADEAA",
"l+	c #D9ECD2",
"m+	c #F5F9F4",
"n+	c #A3C99F",
"o+	c #96BF95",
"p+	c #91B797",
"q+	c #8EB399",
"r+	c #8AAD9B",
"s+	c #E4EBE8",
"t+	c #F5F8F7",
"u+	c #819CA1",
"v+	c #8197A2",
"w+	c #8192A4",
"x+	c #818BA6",
"y+	c #A2A7BE",
"z+	c #D2D3E1",
"A+	c #D2D2E2",
"B+	c #A0A0C3",
"C+	c #8181B1",
"D+	c #8181B3",
"E+	c #8181B4",
"F+	c #A5A5CB",
"G+	c #BFBFDD",
"H+	c #8181BB",
"I+	c #C0C0DF",
"J+	c #8282BE",
"K+	c #8282BC",
"L+	c #8181B6",
"M+	c #8181B2",
"N+	c #CCCCDF",
"O+	c #F6F6F8",
"P+	c #C9CDD9",
"Q+	c #818EA5",
"R+	c #8195A3",
"S+	c #8199A2",
"T+	c #819FA0",
"U+	c #D7E1DF",
"V+	c #8FB29C",
"W+	c #90B798",
"X+	c #93BB96",
"Y+	c #97C094",
"Z+	c #9CC792",
"`+	c #9FCC91",
" @	c #A3D38E",
".@	c #A7D88C",
"+@	c #AADC8B",
"@@	c #B2E58C",
"#@	c #5DC910",
"$@	c #6BC730",
"%@	c #FAFCF9",
"&@	c #B1D9A0",
"*@	c #EEF6EB",
"=@	c #B5D5AE",
"-@	c #308626",
";@	c #ECF1EF",
">@	c #010D51",
",@	c #131960",
"'@	c #7B7BA8",
")@	c #A6A6C7",
"!@	c #2F2F89",
"~@	c #B4B4D6",
"{@	c #05057B",
"]@	c #8080BA",
"^@	c #111181",
"/@	c #F1F1F7",
"(@	c #DBDBEB",
"_@	c #00006C",
":@	c #4D4D89",
"<@	c #393C7A",
"[@	c #233266",
"}@	c #001B4A",
"|@	c #2E8228",
"1@	c #3D9821",
"2@	c #4DB118",
"3@	c #54BB15",
"4@	c #56BF13",
"5@	c #CEEABD",
"6@	c #F2F8EF",
"7@	c #68AB5A",
"8@	c #318627",
"9@	c #297C2A",
"0@	c #02194D",
"a@	c #777EA1",
"b@	c #464982",
"c@	c #353679",
"d@	c #ACACCA",
"e@	c #000066",
"f@	c #04046E",
"g@	c #C7C7E0",
"h@	c #FBFBFD",
"i@	c #8787C0",
"j@	c #9797C8",
"k@	c #333397",
"l@	c #ACACD2",
"m@	c #7575B2",
"n@	c #656799",
"o@	c #54588C",
"p@	c #3A4876",
"q@	c #558B6A",
"r@	c #579163",
"s@	c #478B4C",
"t@	c #4EB218",
"u@	c #65D50D",
"v@	c #8DCF68",
"w@	c #E0EEDC",
"x@	c #3C9427",
"y@	c #2B7D29",
"z@	c #0F2457",
"A@	c #D3D6E0",
"B@	c #F0F1F4",
"C@	c #ECECF2",
"D@	c #E5E5EE",
"E@	c #3D3D83",
"F@	c #292A88",
"G@	c #D2D2E6",
"H@	c #F8F8FA",
"I@	c #F3F3F7",
"J@	c #F5F5FA",
"K@	c #9F9FCC",
"L@	c #0C0C75",
"M@	c #B0B8C8",
"N@	c #AEC3C0",
"O@	c #ADCCAD",
"P@	c #368E24",
"Q@	c #3E9920",
"R@	c #46A71B",
"S@	c #4CB019",
"T@	c #55BD14",
"U@	c #60C817",
"V@	c #30545F",
"W@	c #284D5A",
"X@	c #25495B",
"Y@	c #23455B",
"Z@	c #21425A",
"`@	c #1F3F5F",
" #	c #1C3B5C",
".#	c #223C6B",
"+#	c #3A448E",
"@#	c #142E64",
"##	c #112B65",
"$#	c #0F2866",
"%#	c #0C2468",
"&#	c #0A2167",
"*#	c #081E6A",
"=#	c #3E4397",
"-#	c #02126A",
";#	c #02106A",
">#	c #020B6C",
",#	c #02096D",
"'#	c #1D2083",
")#	c #5455A6",
"!#	c #5C5CAC",
"~#	c #2B2B8F",
"{#	c #030375",
"]#	c #191988",
"^#	c #5A5AAA",
"/#	c #BABADC",
"(#	c #7777BA",
"_#	c #4848A2",
":#	c #09097F",
"<#	c #030376",
"[#	c #383A96",
"}#	c #020A6C",
"|#	c #030F6F",
"1#	c #02116A",
"2#	c #021469",
"3#	c #373D92",
"4#	c #36408D",
"5#	c #102966",
"6#	c #132D63",
"7#	c #142F60",
"8#	c #173461",
"9#	c #1A3861",
"0#	c #1C3C5E",
"a#	c #214061",
"b#	c #131387",
"c#	c #0E0E84",
"d#	c #0D0D82",
"e#	c #0E0E85",
"f#	c #8787C2",
"                                                                                                                                ",
"                                                                                                                                ",
"                                                                                                                                ",
"                                                                                                                                ",
"                                                                                                                                ",
"                                                                                                                                ",
"                                                                                                                                ",
"                                                                                                                                ",
"                                                                                                                                ",
"                                                                                                                                ",
"                                                                                                                                ",
"                                                                                                                                ",
"                                                                                                                                ",
". . . . . . . . . . . . . . . . . . . . . . . . . . . . . . + @ @ @ # @ @ @ @ @ @ @ @ @ @ @ @ @ @ @ @ @ @ @ @ @ @ @ @ @ @ @ @ $ ",
". . . . . . . . . . . . . . . . . . . . . . . . . . . . . . . . . . % . . . . . . . . . . . . . . . . . . . . . . . . . . . . & ",
". * . * * . * * . * * . * * . * * . * * . * * . * * . * * . * * . * % . * . * . * . * . * . * . * . * . * . * . * . * . * * . & ",
". . = . = . = . = . = . = . = . = . = . = . = . = . = . = . = . = . - . = * . * . * . * . * . * . * . * . * . * . * . * . = * & ",
". . . = . = . = . = . = . = . = . = . = . = . = . = . = . = . = . = % . . . = . * . = . * . = . * . = . * . = . * . = . * . . & ",
". * . . . . = . . . = . . . = . . . = . . . = . . . = . . . = . . . ; * . = . = = . . = = . . = = . . = = . . = = . . = . = * & ",
". . = * * . > . * . > . * . > . * . > . * . > . * . > . * . > . * . , . . > = > > . * > > . * > > . * > > . * > > . * > = > . & ",
". . > . = . * = * . * = * . * = * . * = * . * = * . * = * . * = * . ; * . * > . * = . = * = . = * = . = * = . = * = . = > * . & ",
"' = . * > . = > . = . > . = . > . = . > . = . > . = . > . = . > . = , . = . = . = > . > . > . > . > . > . > . > . > . > = . * & ",
"& > . = * . > = * > . * * > . * * > . * * > . * * > . * * > . * . > % = > . > . > = * . * * . * . * * . * . * . * * . * > . = & ",
"& . * > . = * > . = * . = . = = . = . = . = = . = . = = . = . = * . - > . * . * . > . = = . * . = . = * . = . * . = * . = * > & ",
"& . . ) * > . . ) > . . > ) > > ) > . > ) > > . > ) > > ) > . > . ) % ) * . ) * . * . > > ) ) * > . > . . > . ) . > ) . > . . & ",
"& * . > . . ) * > ) * . * > . * > . * . > . * . * > . * > . * . ) > % > . . > ) . ) * * . > > . . * . * . * . > * . > . * . * & ",
"& . ) . * . > . ) > . ) . ) . ) * . ) . * ) . * . ) . ) * . ) . > * % . * * . > . > . ) . * ) * . ) * . ) . * * . * . * ) . ) & ",
"& . = . ) * . * > . ) > ) > . > ) . > ) ) > . ) * > . > ) . > * . ) % ) . ) * . * . * > ) . > . . > ) . > . ) ) * . ) . > . > & ",
"! ~ { ] ^ / ( _ : < [ } | 1 2 3 4 5 6 7 8 9 0 a b c d e f g f h i j k l m n h g o p e q ( b } r s t u v w b x y z A B C : D E F ",
"G H I J K L M N O P Q R S T U V W X Y Z `  ...+.@.#.$.%.&.*.=.-.;.>.,.'.).!.~.{.].&.^./.(.(.(._.:.<.[.}.|.(.1.2.3.4.5.6.7.8.9.0.",
"a.b.c.d.e.f.M g.h.i.j.k.l.m.n.o.p.X q.r.s.t.u.v.w.x.y.%.&.*.z.A.B.C.D.E.F.(.G.{.H.I.J./.(.K.L.M.N.O.P.Q.R.(.S.T.U.V.W.P h.X.Y.Z.",
"`.b.c.d. +.+++@+#+$+(.%+&+*+n.o.=+-+q.r.;+>+,+'+)+!+~+^.&.*.{+(.]+^+/+= (+_+:+{.].&.<+/.(.[+}+|+1+2+3+4+5+(.6+T.7+V.8+9+0+a+b+c+",
"d+e+f+g+h+i+j+(.k+l+m+n+o+p+q+r+s+t+u+v+w+x+y+z+R A+B+C+D+E+F+(.G+H+I+J+K+v.>.L+E+M+C+N+(.B.O+P+Q+R+S+T+U+(.V+W+X+Y+Z+`+ @.@+@@@",
"`.b.c.d. +#@$@%@&@*@=@-@&+*+n.o.=+;@q.r.s.t.>@,@'@(.)@J.&.*.!@(.~@{@]@* ^@/@(@_@].I.<+/.(.:@<@[@}@2+P.4+5+(.6+T.7+|@W.1@h.2@3@c+",
"a.b.c.d. +#@4@5@6@(.7@8@9@*+n.o.p.X q.r.;+0@a@b@c@(.d@%.e@*.f@g@h@i@j@k@l@(.m@{.].I.J./.(.n@o@p@N.O.3+Q.5+(.q@r@s@|@W.9+0+t@Y.Z.",
"`.b.c.d.u@#@4@v@(.w@x@-@y@m.n.o.=+-+q.r.s.z@A@B@C@D@E@%.&.]._@F@G@).H@I@J@K@L@{.].I.<+/.(.(.(.M@1+2+3+4+N@(.(.(.O@|@P@Q@R@S@T@U@",
"V@W@X@Y@Z@`@ #.#b +#@###$#%#&#*#=#5 -#;#>#,#'#)#!#~#{#e e g h h ]#^#/#(#_#:#h g o e <#q b b b [#}#|#1#2#3#b b b 4#5#6#7#8#9#0#a#",
"& . * ) . > . * . * * . * * ) . ) * . . . > . . . > * . > > . > > . % . . * . > . > . > . > . > > . > > ) > . > . * ) . ) . ) . ",
"& > . > * ) > . > > . > . . > . * > * . * ) . * * ) . . ) ) . ) ) . % > * . * ) . ) > ) > ) . ) ) . ) ) . ) . = . > . > * . * . ",
"& ) . ) . > ) . ) ) > ) . * ) . > ) . > . * . > . . > * . * . * . * % ) . . > . * . ) > ) > * . * . * . * * . ) . ) > ) . > > . ",
"& . * > . ) * . * * ) . > > * . ) > * ) > . * ) . * ) . * . * . > . - . * . ) * . * . ) . ) . > . * . > . > * . * . ) > . ) ) . ",
"& > . = . * > . > > . . = = . > . = . > = > . > . > . * > * . * = . % * . . * > * . * . * * . = > > * = . = . > . * * = . * * . ",
"& = . * > . = . = = . * * . * = > . * = * = . = . = > > = . . > . > % > . * . = . > . > . > * . = = . . * . * = . > . > . > > . ",
"& . * . = > * * . * > . > * . > = . > . > . * . * . = = > * . = . = , = . > * . * = . = > = > . * > * . > * . . * = . = . = = . ",
"& . > * . = . > . > = . = > . = . * = . = * . > * . * * = . > * . * ; . * = . * . > * . = > = . > = . . = > . * . > * . * * . . ",
"& . = > . * . = > = * . * = . * * . . > * > . = > . > . . > = . > . % . . > * > * = . > * = . > = > * * . = . > * = . > . > * . ",
"& * . = . . . * = . . . . * . . . . * = . = . * = . = . * = . * = . % * . = . = . . . = . . . = . = . . * . * = . . * = . = . . ",
"& . * . = . = . . = . = = . . = . = . . . * = . . * . * . . = . . = % . . * . * . * = . . * = . * . * = . . . . . * . . * * . . ",
"& * . * . * . * = . * . * . = . * . * . = . . * . . . . * = . . = . - = . . . . * . * . = . . . . * . . * = . = . . * . . . * . ",
"& . . . . . * . * . . . . = . = . . . . . * = . . = = . . . = . * = % . = . = . . * . . . * = . = . . = . . * * . = . . = . . . ",
"& . = = . = . * . . = = . * = . . = . = . . . * * . * * . = * . . . % * . * . = = . . = . . * . . * * . . = . . . * = . * = = . ",
"b#c#c#c#c#c#c#c#c#c#c#c#d#e#c#c#d#c#c#d#e#d#c#c#e#c#e#c#e#c#c#c#c#d#f#c#e#c#c#c#c#c#. * . = . . = . . . = . * = . . * . . . * . ",
"                                                                                                                                ",
"                                                                                                                                ",
"                                                                                                                                ",
"                                                                                                                                ",
"                                                                                                                                ",
"                                                                                                                                ",
"                                                                                                                                ",
"                                                                                                                                ",
"                                                                                                                                ",
"                                                                                                                                ",
"                                                                                                                                ",
"                                                                                                                                "};
