/* XPM */
static char * who_changed_lines_16x16_xpm[] = {
"16 16 8 1",
" 	c None",
".	c #000000",
"+	c #FFFFFF",
"@	c #808080",
"#	c #C0C0C0",
"$	c #F90909",
"%	c #E9E9E9",
"&	c #505050",
"..++++..........",
".+....+..@@..##.",
"+..++..+....++#.",
"+..++..+.+++++#.",
"++++..++.+++++#.",
".++..+++.$$$$$$.",
".++++++.$$$$$$$.",
".++..++.$$$$$$$.",
" .++++..%+++++#.",
" ......&@@@@@+#.",
"  @.++++++++++#.",
"  @.+@@@@@@@@+#.",
"  @.$$$$$$$$$$$.",
"  @.$$$$$$$$$$$.",
"  @.###########.",
"  @............."};
