/* XPM */
static char * who_changed_line_16x16_xpm[] = {
"16 16 80 1",
" 	c None",
".	c #7AB587",
"+	c #F2F8F3",
"@	c #D7E9DA",
"#	c #979797",
"$	c #202020",
"%	c #000000",
"&	c #FFFFFF",
"*	c #3A634D",
"=	c #DFEEE2",
"-	c #9F9F9F",
";	c #DFDFDF",
">	c #BFBFBF",
",	c #EDF5EE",
"'	c #E2EFE4",
")	c #DBDBDB",
"!	c #505050",
"~	c #3C3C3C",
"{	c #606060",
"]	c #0C0C0C",
"^	c #ABABAB",
"/	c #E6F2E9",
"(	c #DBEBDE",
"_	c #CFE5D3",
":	c #2C2C2C",
"<	c #FAFCFA",
"[	c #EDF5EF",
"}	c #E1EFE4",
"|	c #D5E8D8",
"1	c #C9E2CE",
"2	c #292929",
"3	c #878787",
"4	c #F6FAF7",
"5	c #E9F3EB",
"6	c #323232",
"7	c #101010",
"8	c #A7A7A7",
"9	c #F3F9F4",
"0	c #D9EBDD",
"a	c #CCE4D1",
"b	c #C0DDC5",
"c	c #232323",
"d	c #EBEBEB",
"e	c #FBFBFB",
"f	c #E5F1E7",
"g	c #747474",
"h	c #E3E3E3",
"i	c #F1F7F2",
"j	c #E4F0E6",
"k	c #CAE2CE",
"l	c #BCDBC2",
"m	c #AFD4B6",
"n	c #A2CDAA",
"o	c #B3D6B9",
"p	c #A6CFAE",
"q	c #9AC9A3",
"r	c #8EC298",
"s	c #82BC8D",
"t	c #78B784",
"u	c #70B27D",
"v	c #DDECE0",
"w	c #D0E6D4",
"x	c #C4DFC9",
"y	c #B7D8BD",
"z	c #ABD2B3",
"A	c #A0CCA8",
"B	c #95C69E",
"C	c #8BC195",
"D	c #7CB988",
"E	c #BDDCC3",
"F	c #B2D6B9",
"G	c #A7D0AF",
"H	c #9DCBA6",
"I	c #89C093",
"J	c #BADAC0",
"K	c #B0D5B7",
"L	c #96C79F",
"M	c #F8FBF9",
"N	c #C3DFC8",
"O	c #808080",
"  ..+..@#$$$%   ",
" .&**=*-%;>>>%  ",
".&.,'.#%)!~{]^% ",
".&+/(_:&-%-&$$&%",
".<[}|12&)-)3]^&%",
".45***6&&&378&&%",
".9/0abc&&&d;e&&%",
".+f****%d&g$he% ",
".ij@klmn%>>>>%  ",
".+f******%%%%*  ",
".9/0abopqrstu*  ",
".45vwxyzABCsD*  ",
".<[}|1EFGHBrI*  ",
".&+/(_xJKGAqL*  ",
"..M,'@aNJFzp**  ",
" O***********   "};
